<?xml version="1.0" encoding="UTF-8"?>
<svg id="construction" xmlns="http://www.w3.org/2000/svg" version="1.1" xmlns:xlink="http://www.w3.org/1999/xlink" viewBox="0 0 5180 1280.9">
  <!-- Generator: Adobe Illustrator 30.0.0, SVG Export Plug-In . SVG Version: 2.1.1 Build 123)  -->
  <defs>
    <style>
      .st0 {
        fill: #99d9d9;
      }

      .st1 {
        fill: #000300;
      }

      .st2 {
        fill: none;
      }

      .st3 {
        fill: #009a96;
      }

      .st4 {
        clip-path: url(#clippath);
      }
    </style>
    <clipPath id="clippath">
      <rect class="st2" x="4001.9" y="94.7" width="1080.1" height="1080.1"/>
    </clipPath>
  </defs>
  <path class="st1" d="M2291.4,883.9c62.6,0,86.5,45.5,88.7,79.8h-177.4c4.4-35.8,29.8-79.8,88.7-79.8M2105.1,997.2c0,115.6,82.7,189.4,192.3,189.4s111.8-16.4,148.4-49.9l-41.8-61.1c-23.1,22.4-62.6,35.8-96.1,35.8-61.1,0-97.7-38-103.6-83.4h267.6v-20.8c0-117.7-73-198.3-180.4-198.3s-186.3,84.2-186.3,188.6M2048.9,1177.6v-254.2c0-70.1-38-114.8-117-114.8s-102.9,28.3-126,55.9v-47h-94.6v360.1h94.6v-242.2c15.6-21.6,44.7-42.5,82-42.5s66.3,17.1,66.3,67.1v217.7h94.6ZM1522.1,1125.4c0,32.8,27.6,60.3,60.3,60.3s60.3-27.6,60.3-60.3-27.6-60.3-60.3-60.3-60.3,27.6-60.3,60.3M1296.3,1102.3c-58.9,0-91.7-48.4-91.7-105s32.8-104.4,91.7-104.4,92.5,48.4,92.5,104.4-33.5,105-92.5,105M1296.3,1186.6c119.3,0,190.8-86.5,190.8-189.4s-71.5-188.6-190.8-188.6-190.1,86.5-190.1,188.6,71.5,189.4,190.1,189.4M756.7,1130.6c38,35.1,98.4,55.9,161.1,55.9,99.8,0,155.8-49.2,155.8-115.6s-82.7-105.8-144.7-117.7c-40.3-8.3-68.6-16.4-68.6-38.7s22.4-33.5,56.6-33.5,85,18.7,106.6,41.8l37.2-64.9c-35.1-28.3-83.4-49.2-144.7-49.2-94.6,0-147.6,53-147.6,113.3,0,85.7,79.8,100.6,141.6,112.5,41,8.3,72.3,17.1,72.3,42.5s-19.4,36.6-60.3,36.6-98.4-24.6-124.5-49.2l-41,66.3h.1ZM553.6,883.9c62.6,0,86.5,45.5,88.7,79.8h-177.4c4.4-35.8,29.8-79.8,88.7-79.8M367.2,997.2c0,115.6,82.7,189.4,192.3,189.4s111.8-16.4,148.4-49.9l-41.8-61.1c-23.1,22.4-62.6,35.8-96.1,35.8-61.1,0-97.7-38-103.6-83.4h267.6v-20.8c0-117.7-73-198.3-180.4-198.3s-186.3,84.2-186.3,188.6M704.9,655.8h-87.3l-99.8,107.3h66.3l120.8-107.3h0ZM233.1,1177.6v-237.8c15.6-23.1,57.4-40.3,88.7-40.3s19.4.8,26,2.3v-92.5c-44.7,0-89.4,25.4-114.8,57.4v-49.2h-94.6v360.1h94.8Z"/>
  <g class="st4">
    <path class="st3" d="M4851.9,941.2c-5.7-4.2-12.4-6.4-20.2-6.4s-14.5,2.3-20.8,6.7-10.9,10.5-13.1,18.5h66.3c-2.3-8.4-6.4-14.7-12.2-18.9"/>
    <path class="st3" d="M4208.2,910.1h-38.1v42.8l38.1.3c8,0,14.1-2,18.9-6.2,4.7-4.1,7.1-9.4,7.1-15.9s-2.4-11.2-7.1-15c-4.7-3.8-10.9-5.8-18.9-5.8"/>
    <path class="st3" d="M4809.2,1014.3c6.1,5.5,13.5,8.4,22.1,8.4,16,0,27.6-6.1,34.3-18.5l45.5,9.3c-6.7,16.6-17,29.2-30.7,37.5-13.7,8.4-30.1,12.4-49,12.4s-43.9-8-60.2-24c-16.4-16-24.6-36.6-24.6-61.6s8.4-45.2,24.6-61.2c16.4-16,36.6-24,60.6-24s42.9,7.7,58.7,23.4c15.7,15.7,23.4,36.2,24,61.9l.4,13.8h-118c2.3,9.7,6.4,17.3,12.4,22.7M4722.2,1060.7h-46.9l-90.8-101.7v101.7h-56.6v-197.6h46.6l90.8,105.3v-105.3h56.9v197.6ZM4500.4,1060.7h-56.9v-75.6h-70.9v75.6h-57.9v-197.6h57.9v76.8h70.9v-76.8h56.9v197.6ZM4232,1060.7l-54.2-63.1h-7.6v63.1h-56.6v-197.6h105.3c21.2,0,38.4,6.2,51.3,18.3,13,12.1,19.4,28.1,19.4,47.8s-4.2,29.2-12.7,40.4c-8.5,11.2-20.1,19.2-34.8,23.6l58.9,67.6h-69,0ZM4001.9,1174.8h1080.1V94.7h-1080.1v1080.1h0Z"/>
  </g>
  <g>
    <path class="st0" d="M3272.6,815.5c-32.4,5.1-55.4,36.6-50.4,69,5.1,32.4,36.6,55.4,69,50.4,32.4-5.1,55.4-36.6,50.4-69-5.1-32.4-36.6-55.4-69-50.4Z"/>
    <path class="st0" d="M2741.8,94.7v446.6c58.3-47.9,122.8-86.5,192.4-115.3,1-16.6,5.3-33.3,13.3-49.2,31.6-63.3,108.7-88.9,172-57.3,22.5,11.2,40.6,28.5,53.1,49.5,34.9-2.5,70.1-2.8,105.4-.5,65,4.2,128.5,16.5,190,36.7,17.4-13.1,35.7-25.4,54.6-36.6,65.4-38.6,136.8-64,212.2-75.3,29.1-4.3,58-6.5,87.1-6.6V94.3h-1080.1v.4Z"/>
    <path class="st0" d="M3254.8,1027.8c-22.9-4.1-45.2-13.2-65.2-27.9-68.7-50.8-83.3-148.1-32.5-216.9,24.4-33,59.6-53.6,97.2-60.3,19.1-71.1,50.9-137.4,95.3-197.3,11.6-15.6,23.8-30.6,36.7-44.8-51.6-12.6-104.2-18.8-157-18.8s-28.2.5-42.2,1.4c-2.3,9.8-5.7,19.3-10.3,28.6-22.5,44.8-67.8,70.7-114.8,70.7s-38.7-4.3-57.2-13.6c-16.3-8.1-30.1-19.3-41-32.5-84.5,36.1-159.7,88.3-221.9,153.7v504.9h575.1c-.3-.4-.4-.6-.6-1-27.2-46-47.8-94.9-61.5-146.1h-.1Z"/>
    <path class="st0" d="M3529.8,533.1c-14.2-7.1-28.7-13.7-43.2-19.8-22.1,20.6-42.4,43.4-60.8,68.2-34.8,47.1-60.6,99.1-76.7,153.7,8.6,4.2,17,9.1,25,15.1,68.7,50.8,83.3,148.1,32.5,216.9-15.5,20.8-35.2,36.8-57.2,47.4,17.1,58.3,44.8,112.4,81.5,160.2h390.9v-356.7c-63.3-119-162.7-220.1-292.1-284.9h0Z"/>
    <path class="st0" d="M3573.1,449c92.2,46.4,172.7,109.4,239.2,187.2,3.3,3.8,6.5,7.6,9.7,11.6v-266c-24.3,0-48.6,1.9-73,5.6-63,9.4-122.4,30.5-175.8,61.7h0Z"/>
  </g>
</svg>