<?xml version="1.0" encoding="UTF-8"?>
<svg id="construction" xmlns="http://www.w3.org/2000/svg" version="1.1" xmlns:xlink="http://www.w3.org/1999/xlink" viewBox="0 0 5180 1781.3">
  <!-- Generator: Adobe Illustrator 30.2.1, SVG Export Plug-In . SVG Version: 2.1.1 Build 1)  -->
  <defs>
    <style>
      .st0 {
        stroke-dasharray: 12.2 12.2;
      }

      .st0, .st1, .st2, .st3, .st4, .st5 {
        fill: none;
      }

      .st0, .st2, .st3, .st4, .st5 {
        stroke: #1d1d1b;
        stroke-miterlimit: 10;
        stroke-width: 2.8px;
      }

      .st6, .st7 {
        opacity: .2;
      }

      .st8 {
        fill: #009a96;
      }

      .st9 {
        fill: #2d6b6a;
      }

      .st10 {
        fill: #59bfbd;
      }

      .st3 {
        stroke-dasharray: 12;
      }

      .st4 {
        stroke-dasharray: 12.5 12.5;
      }

      .st5 {
        stroke-dasharray: 12 12;
      }

      .st11 {
        clip-path: url(#clippath);
      }

      .st7 {
        fill: #000300;
        isolation: isolate;
      }
    </style>
    <clipPath id="clippath">
      <rect class="st1" x="3705.9" y="497.2" width="850.4" height="850.4"/>
    </clipPath>
  </defs>
  <path class="st9" d="M2359.2,1118.6c49.3,0,68.1,35.8,69.8,62.8h-139.7c3.5-28.2,23.5-62.8,69.8-62.8M2212.5,1207.8c0,91,65.1,149.1,151.4,149.1s88-12.9,116.8-39.3l-32.9-48.1c-18.2,17.6-49.3,28.2-75.7,28.2-48.1,0-76.9-29.9-81.6-65.7h210.7v-16.4c0-92.7-57.5-156.1-142-156.1s-146.7,66.3-146.7,148.5M2168.3,1349.8v-200.1c0-55.2-29.9-90.4-92.1-90.4s-81,22.3-99.2,44v-37h-74.5v283.5h74.5v-190.7c12.3-17,35.2-33.5,64.6-33.5s52.2,13.5,52.2,52.8v171.4h74.5ZM1753.5,1308.7c0,25.8,21.7,47.5,47.5,47.5s47.5-21.7,47.5-47.5-21.7-47.5-47.5-47.5-47.5,21.7-47.5,47.5M1575.7,1290.5c-46.4,0-72.2-38.1-72.2-82.7s25.8-82.2,72.2-82.2,72.8,38.1,72.8,82.2-26.4,82.7-72.8,82.7M1575.7,1356.9c93.9,0,150.2-68.1,150.2-149.1s-56.3-148.5-150.2-148.5-149.7,68.1-149.7,148.5,56.3,149.1,149.7,149.1M1150.9,1312.8c29.9,27.6,77.5,44,126.8,44,78.6,0,122.7-38.7,122.7-91s-65.1-83.3-113.9-92.7c-31.7-6.5-54-12.9-54-30.5s17.6-26.4,44.6-26.4,66.9,14.7,83.9,32.9l29.3-51.1c-27.6-22.3-65.7-38.7-113.9-38.7-74.5,0-116.2,41.7-116.2,89.2,0,67.5,62.8,79.2,111.5,88.6,32.3,6.5,56.9,13.5,56.9,33.5s-15.3,28.8-47.5,28.8-77.5-19.4-98-38.7l-32.3,52.2h0ZM991,1118.6c49.3,0,68.1,35.8,69.8,62.8h-139.7c3.5-28.2,23.5-62.8,69.8-62.8M844.2,1207.8c0,91,65.1,149.1,151.4,149.1s88-12.9,116.8-39.3l-32.9-48.1c-18.2,17.6-49.3,28.2-75.7,28.2-48.1,0-76.9-29.9-81.6-65.7h210.7v-16.4c0-92.7-57.5-156.1-142-156.1s-146.7,66.3-146.7,148.5M1110.1,939h-68.7l-78.6,84.5h52.2l95.1-84.5h0ZM738.6,1349.8v-187.2c12.3-18.2,45.2-31.7,69.8-31.7s15.3.6,20.5,1.8v-72.8c-35.2,0-70.4,20-90.4,45.2v-38.7h-74.5v283.5h74.6Z"/>
  <g>
    <path class="st10" d="M3131.7,1064.7c-25.5,4-43.6,28.8-39.7,54.3,4,25.5,28.8,43.6,54.3,39.7,25.5-4,43.6-28.8,39.7-54.3-4-25.5-28.8-43.6-54.3-39.7Z"/>
    <path class="st10" d="M2713.8,497.2v351.6c45.9-37.7,96.7-68.1,151.5-90.8.8-13.1,4.2-26.2,10.5-38.7,24.9-49.8,85.6-70,135.4-45.1,17.7,8.8,32,22.4,41.8,39,27.5-2,55.2-2.2,83-.4,51.2,3.3,101.2,13,149.6,28.9,13.7-10.3,28.1-20,43-28.8,51.5-30.4,107.7-50.4,167.1-59.3,22.9-3.4,45.7-5.1,68.6-5.2v-151.5h-850.4v.3Z"/>
    <path class="st10" d="M3117.7,1231.9c-18-3.2-35.6-10.4-51.3-22-54.1-40-65.6-116.6-25.6-170.8,19.2-26,46.9-42.2,76.5-47.5,15-56,40.1-108.2,75-155.3,9.1-12.3,18.7-24.1,28.9-35.3-40.6-9.9-82-14.8-123.6-14.8s-22.2.4-33.2,1.1c-1.8,7.7-4.5,15.2-8.1,22.5-17.7,35.3-53.4,55.7-90.4,55.7s-30.5-3.4-45-10.7c-12.8-6.4-23.7-15.2-32.3-25.6-66.5,28.4-125.7,69.5-174.7,121v397.5h452.8c-.2-.3-.3-.5-.5-.8-21.4-36.2-37.6-74.7-48.4-115h0Z"/>
    <path class="st10" d="M3334.2,842.4c-11.2-5.6-22.6-10.8-34-15.6-17.4,16.2-33.4,34.2-47.9,53.7-27.4,37.1-47.7,78-60.4,121,6.8,3.3,13.4,7.2,19.7,11.9,54.1,40,65.6,116.6,25.6,170.8-12.2,16.4-27.7,29-45,37.3,13.5,45.9,35.3,88.5,64.2,126.1h307.8v-280.8c-49.8-93.7-128.1-173.3-230-224.3h0Z"/>
    <path class="st10" d="M3368.3,776.2c72.6,36.5,136,86.1,188.3,147.4,2.6,3,5.1,6,7.6,9.1v-209.4c-19.1,0-38.3,1.5-57.5,4.4-49.6,7.4-96.4,24-138.4,48.6h0Z"/>
  </g>
  <g>
    <g>
      <line class="st2" x1="94.7" y1="1064.1" x2="100.7" y2="1064.1"/>
      <line class="st5" x1="112.6" y1="1064.1" x2="5040" y2="1064.1"/>
      <line class="st2" x1="5046" y1="1064.1" x2="5052" y2="1064.1"/>
    </g>
    <g>
      <line class="st2" x1="94.7" y1="780.7" x2="100.7" y2="780.7"/>
      <line class="st5" x1="112.6" y1="780.7" x2="5040" y2="780.7"/>
      <line class="st2" x1="5046" y1="780.7" x2="5052" y2="780.7"/>
    </g>
    <g>
      <line class="st2" x1="94.7" y1="497.2" x2="100.7" y2="497.2"/>
      <line class="st5" x1="112.6" y1="497.2" x2="5040" y2="497.2"/>
      <line class="st2" x1="5046" y1="497.2" x2="5052" y2="497.2"/>
    </g>
    <g>
      <line class="st2" x1="2501.2" y1="1663.9" x2="2501.2" y2="1657.9"/>
      <line class="st5" x1="2501.2" y1="1645.9" x2="2501.2" y2="213.4"/>
      <line class="st2" x1="2501.2" y1="207.4" x2="2501.2" y2="201.4"/>
    </g>
    <g>
      <line class="st2" x1="1753.5" y1="1510.3" x2="1753.5" y2="1504.3"/>
      <line class="st4" x1="1753.5" y1="1491.9" x2="1753.5" y2="1273.4"/>
      <line class="st2" x1="1753.5" y1="1267.2" x2="1753.5" y2="1261.2"/>
    </g>
    <g>
      <line class="st2" x1="1848.6" y1="1510.3" x2="1848.6" y2="1504.3"/>
      <line class="st4" x1="1848.6" y1="1491.9" x2="1848.6" y2="1273.4"/>
      <line class="st2" x1="1848.6" y1="1267.2" x2="1848.6" y2="1261.2"/>
    </g>
    <g>
      <line class="st2" x1="3705.9" y1="1663.9" x2="3705.9" y2="1657.9"/>
      <line class="st5" x1="3705.9" y1="1645.9" x2="3705.9" y2="213.4"/>
      <line class="st2" x1="3705.9" y1="207.4" x2="3705.9" y2="201.4"/>
    </g>
    <g>
      <line class="st2" x1="664.1" y1="1663.9" x2="664.1" y2="1657.9"/>
      <line class="st5" x1="664.1" y1="1645.9" x2="664.1" y2="213.4"/>
      <line class="st2" x1="664.1" y1="207.4" x2="664.1" y2="201.4"/>
    </g>
    <g>
      <line class="st2" x1="4556.3" y1="1663.9" x2="4556.3" y2="1657.9"/>
      <line class="st5" x1="4556.3" y1="1645.9" x2="4556.3" y2="213.4"/>
      <line class="st2" x1="4556.3" y1="207.4" x2="4556.3" y2="201.4"/>
    </g>
    <g>
      <line class="st2" x1="2713.8" y1="1663.9" x2="2713.8" y2="1657.9"/>
      <line class="st5" x1="2713.8" y1="1645.9" x2="2713.8" y2="213.4"/>
      <line class="st2" x1="2713.8" y1="207.4" x2="2713.8" y2="201.4"/>
    </g>
    <g>
      <line class="st2" x1="2997.3" y1="1663.9" x2="2997.3" y2="1657.9"/>
      <line class="st5" x1="2997.3" y1="1645.9" x2="2997.3" y2="213.4"/>
      <line class="st2" x1="2997.3" y1="207.4" x2="2997.3" y2="201.4"/>
    </g>
    <g>
      <line class="st2" x1="3280.7" y1="1663.9" x2="3280.7" y2="1657.9"/>
      <line class="st5" x1="3280.7" y1="1645.9" x2="3280.7" y2="213.4"/>
      <line class="st2" x1="3280.7" y1="207.4" x2="3280.7" y2="201.4"/>
    </g>
    <g>
      <line class="st2" x1="3989.4" y1="1663.9" x2="3989.4" y2="1657.9"/>
      <line class="st5" x1="3989.4" y1="1645.9" x2="3989.4" y2="213.4"/>
      <line class="st2" x1="3989.4" y1="207.4" x2="3989.4" y2="201.4"/>
    </g>
    <g>
      <line class="st2" x1="4272.9" y1="1663.9" x2="4272.9" y2="1657.9"/>
      <line class="st5" x1="4272.9" y1="1645.9" x2="4272.9" y2="213.4"/>
      <line class="st2" x1="4272.9" y1="207.4" x2="4272.9" y2="201.4"/>
    </g>
    <g>
      <line class="st2" x1="3564.2" y1="1663.9" x2="3564.2" y2="1657.9"/>
      <line class="st5" x1="3564.2" y1="1645.9" x2="3564.2" y2="213.4"/>
      <line class="st2" x1="3564.2" y1="207.4" x2="3564.2" y2="201.4"/>
    </g>
    <g>
      <line class="st2" x1="2713.8" y1="1663.9" x2="2713.8" y2="1657.9"/>
      <line class="st5" x1="2713.8" y1="1645.9" x2="2713.8" y2="213.4"/>
      <line class="st2" x1="2713.8" y1="207.4" x2="2713.8" y2="201.4"/>
    </g>
    <g>
      <line class="st2" x1="94.7" y1="1347.6" x2="100.7" y2="1347.6"/>
      <line class="st5" x1="112.6" y1="1347.6" x2="5040" y2="1347.6"/>
      <line class="st2" x1="5046" y1="1347.6" x2="5052" y2="1347.6"/>
    </g>
    <path class="st10" d="M3131.7,1064.7c-25.5,4-43.6,28.8-39.7,54.3,4,25.5,28.8,43.6,54.3,39.7,25.5-4,43.6-28.8,39.7-54.3-4-25.5-28.8-43.6-54.3-39.7Z"/>
    <g>
      <path d="M1925.8,1487.2v-30.4l-6.1,6.4-3.3-3.5,10.1-10.4h5v37.8h-5.7Z"/>
      <path d="M1939.2,1493.3c.6.3,1.6.5,2.3.5,1.9,0,3.1-.6,4-2.7l1.6-3.6-11.3-27.7h5.4l8.6,21.5,8.6-21.5h5.5l-13.5,32.6c-1.8,4.3-4.8,5.8-8.7,5.9-.9,0-2.4-.2-3.2-.4l.8-4.6h-.1Z"/>
    </g>
    <g>
      <path d="M1787.2,1487.2v-30.4l-6.1,6.4-3.3-3.5,10.1-10.4h5v37.8h-5.7Z"/>
      <path d="M1799.9,1487.2v-3.9l14.3-19h-14.3v-4.5h21v3.8l-14.4,19.2h14.6v4.4h-21.3.1Z"/>
    </g>
    <g>
      <path d="M3126.4,1129.2v-30.4l-6.1,6.4-3.3-3.5,10.1-10.4h5v37.8h-5.7Z"/>
      <path d="M3139.1,1129.2v-3.9l14.3-19h-14.3v-4.5h21v3.8l-14.4,19.2h14.6v4.4h-21.3,0Z"/>
    </g>
    <g>
      <line class="st2" x1="1902.5" y1="1510.3" x2="1902.5" y2="1504.3"/>
      <line class="st0" x1="1902.5" y1="1492.2" x2="1902.5" y2="1035.6"/>
      <line class="st2" x1="1902.5" y1="1029.5" x2="1902.5" y2="1023.5"/>
    </g>
    <g>
      <line class="st2" x1="1976.7" y1="1510.3" x2="1976.7" y2="1504.3"/>
      <line class="st0" x1="1976.7" y1="1492.2" x2="1976.7" y2="1035.6"/>
      <line class="st2" x1="1976.7" y1="1029.5" x2="1976.7" y2="1023.5"/>
    </g>
    <g>
      <path class="st3" d="M3131.7,1064.5c-25.5,4-43.6,28.8-39.7,54.3,4,25.5,28.8,43.6,54.3,39.7,25.5-4,43.6-28.8,39.7-54.3-4-25.5-28.8-43.6-54.3-39.7Z"/>
      <path class="st3" d="M2713.8,848.6c45.9-37.7,96.7-68.1,151.5-90.8.8-13.1,4.2-26.2,10.5-38.7,24.9-49.8,85.6-70,135.4-45.1,17.7,8.8,32,22.4,41.8,39,27.5-2,55.2-2.2,83-.4,51.2,3.3,101.2,13,149.6,28.9,13.7-10.3,28.1-20,43-28.8,51.5-30.4,107.7-50.4,167.1-59.3,22.9-3.4,45.7-5.1,68.6-5.2"/>
      <path class="st3" d="M3166.6,1347.4c-.2-.3-.3-.5-.5-.8-21.4-36.2-37.6-74.7-48.4-115-18-3.2-35.6-10.4-51.3-22-54.1-40-65.6-116.6-25.6-170.8,19.2-26,46.9-42.2,76.5-47.5,15-56,40.1-108.2,75-155.3,9.1-12.3,18.7-24.1,28.9-35.3-40.6-9.9-82-14.8-123.6-14.8s-22.2.4-33.2,1.1c-1.8,7.7-4.5,15.2-8.1,22.5-17.7,35.3-53.4,55.7-90.4,55.7s-30.5-3.4-45-10.7c-12.8-6.4-23.7-15.2-32.3-25.6-66.5,28.4-125.7,69.5-174.7,121"/>
      <path class="st3" d="M3564.2,1066.6c-49.8-93.7-128.1-173.3-230-224.3-11.2-5.6-22.6-10.8-34-15.6-17.4,16.2-33.4,34.2-47.9,53.7-27.4,37.1-47.7,78-60.4,121,6.8,3.3,13.4,7.2,19.7,11.9,54.1,40,65.6,116.6,25.6,170.8-12.2,16.4-27.7,29-45,37.3,13.5,45.9,35.3,88.5,64.2,126.1"/>
      <path class="st3" d="M3564.2,723c-19.1,0-38.3,1.5-57.5,4.4-49.6,7.4-96.4,24-138.4,48.6,72.6,36.5,136,86.1,188.3,147.4,2.6,3,5.1,6,7.6,9.1"/>
    </g>
    <g>
      <path d="M2558.3,392.8c10.5,0,14.8,10.1,14.8,19.5s-4.3,19.6-14.8,19.6-14.8-10.2-14.8-19.6,4.3-19.5,14.8-19.5ZM2558.3,397.8c-6.7,0-9,7.1-9,14.5s2.3,14.5,9,14.5,9-7.1,9-14.5-2.3-14.5-9-14.5Z"/>
      <path d="M2580.8,424.7c1.9,0,3.6,1.6,3.6,3.5s-1.6,3.6-3.6,3.6-3.5-1.6-3.5-3.6,1.6-3.5,3.5-3.5Z"/>
      <path d="M2590.6,431.1l14.7-32.8h-20v-5h26.5v3.9l-15.1,33.9h-6.2.1Z"/>
      <path d="M2620.2,422c2.5,3.1,5.9,4.8,10.3,4.8s8.2-3.2,8.2-7.4-3.2-7.4-8.1-7.4-6,1-8.5,3.4l-4.1-1.3v-20.7h23.9v5h-18.3v12.1c1.8-1.8,5-3.3,8.7-3.3,6.3,0,12.1,4.4,12.1,12.1s-5.9,12.6-13.9,12.6-10.8-2.3-13.7-6l3.3-3.9h.1Z"/>
      <path d="M2667.9,431.1l-7.7-10.7-7.7,10.7h-5.8l10.3-14.1-9.6-13.3h5.8l7.1,9.9,7-9.9h5.8l-9.7,13.3,10.3,14.1h-5.8Z"/>
    </g>
    <g>
      <path d="M3598.5,392.8c10.5,0,14.8,10.1,14.8,19.5s-4.3,19.6-14.8,19.6-14.8-10.2-14.8-19.6,4.3-19.5,14.8-19.5ZM3598.5,397.8c-6.7,0-9,7.1-9,14.5s2.3,14.5,9,14.5,9-7.1,9-14.5-2.3-14.5-9-14.5Z"/>
      <path d="M3621,424.7c1.9,0,3.6,1.6,3.6,3.5s-1.6,3.6-3.6,3.6-3.5-1.6-3.5-3.6,1.6-3.5,3.5-3.5Z"/>
      <path d="M3634.6,422c2.5,3.1,5.9,4.8,10.3,4.8s8.2-3.2,8.2-7.4-3.2-7.4-8.1-7.4-6,1-8.5,3.4l-4.1-1.3v-20.7h23.9v5h-18.3v12.1c1.8-1.8,5-3.3,8.7-3.3,6.3,0,12.1,4.4,12.1,12.1s-5.9,12.6-13.9,12.6-10.8-2.3-13.7-6l3.3-3.9h.1Z"/>
      <path d="M3682.4,431.1l-7.7-10.7-7.7,10.7h-5.8l10.3-14.1-9.6-13.3h5.8l7.1,9.9,7-9.9h5.8l-9.7,13.3,10.3,14.1h-5.8Z"/>
    </g>
    <g>
      <path d="M3408.9,431.1v-30.4l-6.1,6.4-3.3-3.5,10.1-10.4h5v37.8h-5.7Z"/>
      <path d="M3440.3,431.1l-7.7-10.7-7.7,10.7h-5.8l10.3-14.1-9.6-13.3h5.8l7.1,9.9,7-9.9h5.8l-9.7,13.3,10.3,14.1h-5.8Z"/>
    </g>
    <g>
      <path d="M3125.4,431.1v-30.4l-6.1,6.4-3.3-3.5,10.1-10.4h5v37.8h-5.7Z"/>
      <path d="M3156.9,431.1l-7.7-10.7-7.7,10.7h-5.8l10.3-14.1-9.6-13.3h5.8l7.1,9.9,7-9.9h5.8l-9.7,13.3,10.3,14.1h-5.8Z"/>
    </g>
    <g>
      <path d="M2841.9,431.1v-30.4l-6.1,6.4-3.3-3.5,10.1-10.4h5v37.8h-5.7Z"/>
      <path d="M2873.4,431.1l-7.7-10.7-7.7,10.7h-5.8l10.3-14.1-9.6-13.3h5.8l7.1,9.9,7-9.9h5.8l-9.7,13.3,10.3,14.1h-5.8Z"/>
    </g>
    <g>
      <path d="M4637.7,652.9v-30.4l-6.1,6.4-3.3-3.5,10.1-10.4h5v37.8h-5.7Z"/>
      <path d="M4669.1,652.9l-7.7-10.7-7.7,10.7h-5.8l10.3-14.1-9.6-13.3h5.8l7.1,9.9,7-9.9h5.8l-9.7,13.3,10.3,14.1h-5.8,0Z"/>
    </g>
    <g>
      <path d="M4637.7,932.6v-30.4l-6.1,6.4-3.3-3.5,10.1-10.4h5v37.8h-5.7Z"/>
      <path d="M4669.1,932.6l-7.7-10.7-7.7,10.7h-5.8l10.3-14.1-9.6-13.3h5.8l7.1,9.9,7-9.9h5.8l-9.7,13.3,10.3,14.1h-5.8,0Z"/>
    </g>
    <g>
      <path d="M4637.7,1222.1v-30.4l-6.1,6.4-3.3-3.5,10.1-10.4h5v37.8h-5.7Z"/>
      <path d="M4669.1,1222.1l-7.7-10.7-7.7,10.7h-5.8l10.3-14.1-9.6-13.3h5.8l7.1,9.9,7-9.9h5.8l-9.7,13.3,10.3,14.1h-5.8,0Z"/>
    </g>
    <g>
      <path d="M3182.1,1318.3l-15.9-25.9-1.9,8.7-4.7-1.2,3.2-14.2,4.2-2.6,19.8,32.2-4.8,3h0Z"/>
      <path d="M3196.7,1316.5c.7,0,1.6-.4,2.2-.8,1.6-1,2.3-2.2,2-4.3l-.5-3.9-24.1-17.6,4.6-2.9,18.6,13.8-4-22.8,4.7-2.9,5.6,34.8c.8,4.6-1,7.5-4.3,9.6-.7.4-2.1,1.1-2.9,1.3l-1.7-4.3h-.2Z"/>
    </g>
    <polygon class="st7" points="2507.1 780.7 2405.6 635.1 2500.6 497.2 2417.3 497.2 2359.2 584.7 2300.5 497.2 2217.2 497.2 2311.7 635.1 2211.3 780.7 2294 780.7 2359.2 685 2423.7 780.7 2507.1 780.7"/>
    <polygon class="st7" points="266.7 1066.3 368.2 1211.9 273.1 1349.8 356.5 1349.8 414.6 1262.4 473.2 1349.8 556.6 1349.8 462.1 1211.9 562.5 1066.3 479.7 1066.3 414.6 1162 350 1066.3 266.7 1066.3"/>
    <g class="st6">
      <g class="st11">
        <g>
          <path class="st8" d="M4375.1,1163.7c-4.5-3.3-9.8-5-15.9-5s-11.4,1.8-16.4,5.3-8.6,8.3-10.3,14.6h52.2c-1.8-6.6-5-11.6-9.6-14.9"/>
          <path class="st8" d="M3868.3,1139.2h-30v33.7l30,.2c6.3,0,11.1-1.6,14.9-4.9,3.7-3.2,5.6-7.4,5.6-12.5s-1.9-8.8-5.6-11.8-8.6-4.6-14.9-4.6"/>
          <path class="st8" d="M4341.5,1221.2c4.8,4.3,10.6,6.6,17.4,6.6,12.6,0,21.7-4.8,27-14.6l35.8,7.3c-5.3,13.1-13.4,23-24.2,29.5-10.8,6.6-23.7,9.8-38.6,9.8s-34.6-6.3-47.4-18.9c-12.9-12.6-19.4-28.8-19.4-48.5s6.6-35.6,19.4-48.2c12.9-12.6,28.8-18.9,47.7-18.9s33.8,6.1,46.2,18.4c12.4,12.4,18.4,28.5,18.9,48.7l.3,10.9h-92.9c1.8,7.6,5,13.6,9.8,17.9M4273,1257.8h-36.9l-71.5-80.1v80.1h-44.6v-155.6h36.7l71.5,82.9v-82.9h44.8v155.6ZM4098.4,1257.8h-44.8v-59.5h-55.8v59.5h-45.6v-155.6h45.6v60.5h55.8v-60.5h44.8v155.6ZM3887.1,1257.8l-42.7-49.7h-6v49.7h-44.6v-155.6h82.9c16.7,0,30.2,4.9,40.4,14.4s15.3,22.1,15.3,37.6-3.3,23-10,31.8-15.8,15.1-27.4,18.6l46.4,53.2h-54.3,0ZM3705.9,1347.6h850.4V497.2h-850.4v850.4h0Z"/>
        </g>
      </g>
    </g>
  </g>
</svg>