<?xml version="1.0" encoding="UTF-8"?>
<svg id="Calque_2" data-name="Calque 2" xmlns="http://www.w3.org/2000/svg" xmlns:xlink="http://www.w3.org/1999/xlink" viewBox="0 0 3990.02 859.58">
  <defs>
    <style>
      .cls-1 {
        fill: #000300;
      }

      .cls-2 {
        fill: none;
      }

      .cls-3 {
        fill: #76aed3;
      }

      .cls-4 {
        fill: #009a96;
      }

      .cls-5 {
        clip-path: url(#clippath);
      }
    </style>
    <clipPath id="clippath">
      <rect class="cls-2" x="3139.63" y="0" width="850.39" height="850.39"/>
    </clipPath>
  </defs>
  <g id="work">
    <g>
      <g class="cls-5">
        <path class="cls-4" d="M3808.76,666.46c-4.54-3.28-9.84-5.05-15.9-5.05s-11.35,1.76-16.4,5.3c-5.05,3.53-8.58,8.33-10.35,14.64h52.24c-1.77-6.56-5.05-11.61-9.59-14.89"/>
        <path class="cls-4" d="M3301.95,641.97h-29.96v33.66l29.96.23c6.27,0,11.14-1.62,14.86-4.88,3.72-3.25,5.57-7.43,5.57-12.54s-1.86-8.82-5.57-11.84-8.59-4.64-14.86-4.64"/>
        <path class="cls-4" d="M3775.2,724c4.8,4.29,10.6,6.56,17.41,6.56,12.62,0,21.71-4.8,27-14.64l35.84,7.32c-5.3,13.12-13.37,22.96-24.23,29.53-10.85,6.56-23.72,9.84-38.61,9.84-18.67,0-34.57-6.31-47.44-18.93-12.88-12.62-19.43-28.77-19.43-48.46s6.56-35.58,19.43-48.2c12.87-12.62,28.77-18.93,47.7-18.93s33.82,6.06,46.18,18.42c12.37,12.37,18.42,28.52,18.92,48.71l.25,10.85h-92.87c1.77,7.57,5.05,13.63,9.84,17.92M3706.65,760.62h-36.91l-71.52-80.1v80.1h-44.58v-155.57h36.69l71.52,82.89v-82.89h44.81v155.57ZM3532.05,760.62h-44.81v-59.53h-55.83v59.53h-45.64v-155.57h45.64v60.49h55.83v-60.49h44.81v155.57ZM3320.75,760.62l-42.73-49.69h-6.04v49.69h-44.58v-155.57h82.9c16.72,0,30.18,4.87,40.4,14.39,10.22,9.52,15.33,22.06,15.33,37.62,0,12.31-3.25,22.99-9.98,31.81-6.74,8.82-15.79,15.09-27.4,18.58l46.36,53.17h-54.25ZM3139.63,850.4h850.39V0h-850.39v850.39Z"/>
      </g>
      <path class="cls-1" d="M1899.84,678.66h-186.12v52.51h186.12v-52.51ZM1881.51,838.26c22.79-14.21,39.47-34.14,50.04-59.79l-70.7-20.28c-5.2,11.44-12.74,20.19-22.61,26.25-9.88,6.07-21.75,9.1-35.61,9.1-22.01,0-38.69-7.15-50.04-21.45-11.35-14.3-17.02-34.53-17.02-60.69,0-28.59,5.67-50.21,17.02-64.85,11.35-14.64,29.07-21.97,53.16-21.97,20.62,0,35.48,6.28,44.58,18.84,9.1,12.57,13.65,33.14,13.65,61.74v25.99h69.92c2.94-33.96-.52-63.51-10.4-88.64-9.88-25.12-25.13-44.62-45.75-58.49-20.63-13.86-45.67-20.8-75.12-20.8-27.73,0-52.25,6.28-73.56,18.84-21.32,12.57-38.04,30.2-50.17,52.9-12.13,22.7-18.2,49.39-18.2,80.06,0,28.07,6.19,52.99,18.58,74.73,12.39,21.75,29.55,38.82,51.47,51.2,21.92,12.39,47.26,18.59,76.03,18.59,27.03,0,51.94-7.11,74.73-21.32M1425.76,851.78v-187.68h-8.84v-93.06h-62.91v280.74h71.74ZM1617.6,851.78v-157.52c0-4.68-.35-12.13-1.04-22.35-.7-10.22-2.69-21.53-5.98-33.92-3.29-12.39-8.8-24.3-16.51-35.74-7.71-11.44-18.5-20.88-32.36-28.33-13.87-7.45-31.8-11.18-53.81-11.18-27.55,0-50.39,5.98-68.5,17.94-18.11,11.96-31.67,27.64-40.68,47.05-9.01,19.41-13.52,40.2-13.52,62.39l40.55,19.24c0-17.5,1.95-31.54,5.85-42.11,3.9-10.57,8.88-18.59,14.95-24.05,6.07-5.46,12.56-9.14,19.5-11.05,6.93-1.91,13.43-2.86,19.5-2.86,15.08,0,26.73,3.38,34.96,10.14,8.23,6.76,14.17,15.17,17.81,25.21,3.64,10.05,5.8,20.06,6.5,30.02.69,9.96,1.04,18.15,1.04,24.56v132.57h71.74ZM1290.13,781.07h-70.7v70.7h70.7v-70.7ZM985.25,771.33c-11.35-14.82-17.03-34.79-17.03-59.92,0-16.29,2.38-30.58,7.15-42.89,4.76-12.3,12.09-21.92,21.96-28.85,9.88-6.93,22.52-10.4,37.95-10.4,22.35,0,39.21,7.45,50.56,22.35,11.35,14.91,17.02,34.83,17.02,59.79s-5.59,43.8-16.76,59.14c-11.18,15.34-28.12,23-50.82,23s-38.69-7.41-50.04-22.22M1109.5,840.73c21.4-12.56,38.12-29.98,50.17-52.24,12.04-22.27,18.06-47.96,18.06-77.07s-5.98-54.54-17.94-76.81c-11.96-22.26-28.64-39.73-50.04-52.38-21.41-12.65-46.23-18.98-74.47-18.98s-52.25,6.24-73.56,18.72c-21.32,12.48-38.04,29.85-50.17,52.12-12.13,22.27-18.2,48.05-18.2,77.33s5.93,54.55,17.81,76.81c11.87,22.27,28.46,39.73,49.78,52.38,21.32,12.65,46.1,18.98,74.34,18.98s52.81-6.28,74.21-18.85M830.97,834.88c20.8-16.46,31.19-39.08,31.19-67.84,0-14.56-2.95-26.99-8.84-37.3-5.9-10.31-15.3-19.15-28.21-26.52-12.91-7.36-30.02-13.82-51.34-19.36-21.84-5.55-38.08-10.05-48.74-13.52-10.66-3.47-17.68-6.85-21.06-10.14-3.38-3.29-5.07-7.37-5.07-12.22,0-8.14,3.94-14.38,11.83-18.72,7.88-4.33,18.33-6.07,31.32-5.2,13.34,1.04,23.91,4.59,31.71,10.66,7.8,6.07,12.3,14.3,13.52,24.69l72.26-13c-2.43-16.98-8.88-31.71-19.37-44.19-10.49-12.48-24.22-22.1-41.2-28.85-16.99-6.76-36.48-10.14-58.49-10.14s-42.42,3.6-59.14,10.79c-16.73,7.19-29.68,17.41-38.86,30.67-9.19,13.26-13.78,28.9-13.78,46.92,0,14.39,3.03,26.64,9.1,36.78,6.06,10.14,15.94,18.84,29.63,26.12,13.69,7.28,31.97,13.87,54.85,19.76,20.28,5.37,35.22,9.71,44.84,13,9.62,3.29,15.81,6.63,18.59,10.01,2.77,3.38,4.16,7.84,4.16,13.39,0,8.84-3.47,15.72-10.4,20.67-6.94,4.94-16.81,7.41-29.63,7.41-15.6,0-28.47-3.73-38.6-11.18-10.14-7.45-16.68-17.76-19.62-30.93l-72.26,10.92c4.68,29.29,17.89,51.95,39.64,67.98,21.74,16.03,50.3,24.04,85.65,24.04s65.51-8.23,86.3-24.69M553.52,678.66h-186.12v52.51h186.12v-52.51ZM535.19,838.26c22.78-14.21,39.47-34.14,50.04-59.79l-70.7-20.28c-5.2,11.44-12.74,20.19-22.61,26.25-9.88,6.07-21.75,9.1-35.61,9.1-22.01,0-38.69-7.15-50.04-21.45-11.35-14.3-17.02-34.53-17.02-60.69,0-28.59,5.67-50.21,17.02-64.85,11.35-14.64,29.07-21.97,53.16-21.97,20.62,0,35.48,6.28,44.58,18.84,9.1,12.57,13.65,33.14,13.65,61.74v25.99h69.92c2.94-33.96-.52-63.51-10.4-88.64-9.88-25.12-25.13-44.62-45.75-58.49-20.63-13.86-45.67-20.8-75.12-20.8-27.73,0-52.25,6.28-73.56,18.84-21.32,12.57-38.04,30.2-50.17,52.9-12.13,22.7-18.2,49.39-18.2,80.06,0,28.07,6.19,52.99,18.58,74.73,12.39,21.75,29.54,38.82,51.47,51.2,21.92,12.39,47.26,18.59,76.03,18.59,27.03,0,51.94-7.11,74.73-21.32M531.42,430.67h-52.51l-43.15,101.38h52.51l43.15-101.38ZM70.7,543.49h84.22c3.64,0,7.62.17,11.96.52,4.33.35,8.32,1.04,11.96,2.08,9.53,2.6,16.9,6.98,22.1,13.13,5.2,6.16,8.79,13,10.79,20.54,1.99,7.54,2.99,14.69,2.99,21.45s-1,13.91-2.99,21.44c-2,7.54-5.59,14.39-10.79,20.54-5.2,6.16-12.57,10.53-22.1,13.13-3.64,1.04-7.63,1.73-11.96,2.08-4.33.35-8.32.52-11.96.52h-84.22v-115.41ZM291.13,851.78l-81.1-166.36-72.78,14.04,73.82,152.33h80.06ZM70.7,851.78v-126.85h87.34l31.19-2.08c33.27-5.2,57.71-18.93,73.3-41.2,15.6-22.27,23.39-49.09,23.39-80.45,0-20.97-3.38-39.99-10.14-57.06-6.76-17.07-17.28-31.23-31.58-42.5-14.3-11.26-32.62-18.63-54.98-22.1-4.85-.87-10.36-1.43-16.51-1.69-6.15-.26-11.05-.39-14.68-.39H0v374.32h70.7Z"/>
      <g>
        <path class="cls-3" d="M2574.27,376.66c-14.79-.49-28.48,6.2-37.62,16.87h0c-6.8,7.94-11.09,18.07-11.45,29.07-.39,11.63,3.66,22.56,10.58,31.15,8.44,10.48,21.17,17.46,35.36,17.93,15.67.52,30.09-7.01,39.19-18.79,5.89-7.61,9.56-17.01,9.89-27.15.35-10.74-3.08-20.9-9.07-29.15h0c-8.4-11.59-21.82-19.44-36.88-19.93Z"/>
        <path class="cls-3" d="M2255.91,123.59c31.94-45.55,94.99-56.62,140.54-24.68,15.73,11.03,27.34,25.77,34.5,42.22,56.17,1.15,112.18,7.68,167.62,19.59.26.06.52.11.78.17,1.79-3.6,3.63-7.18,5.51-10.75,29.37-55.85,66.9-106.18,111.92-150.14h-569.27v181.27c30.41-9.45,61.41-17.28,92.94-23.46,2.87-11.95,7.99-23.57,15.46-34.22Z"/>
        <path class="cls-3" d="M2598.33,700.37c-84.51,35.97-162.79,86.44-231.74,150.03h337.5c-10.99-11.46-21.57-23.39-31.73-35.79-29.16-35.57-53.9-73.77-74.03-114.24Z"/>
        <path class="cls-3" d="M2566.14,633.31c1.1-.47,2.2-.94,3.3-1.41-3.38-9.66-6.53-19.43-9.44-29.3-5.78-19.63-10.55-39.45-14.29-59.41-23.26-5.23-45.22-17.3-62.6-36.08-45.74-49.4-42.75-126.8,6.65-172.54,17.18-15.9,37.74-25.91,59.17-30.12,5.36-25.06,12.29-49.69,20.79-73.8-44.76-8.84-90.31-13.86-136.25-14.98-2.97,8.25-7.07,16.25-12.34,23.77-9.81,13.98-22.54,24.71-36.8,31.95-14.26,7.24-30.05,10.98-45.95,10.98-20.01,0-40.2-5.92-57.78-18.25-12.54-8.79-22.46-19.93-29.59-32.42-35.35,7.11-69.9,16.45-103.5,27.93v590.77h114.01c4.94-5.41,9.96-10.77,15.05-16.08,82.96-86.45,180.38-154.09,289.57-201.01Z"/>
        <path class="cls-3" d="M2832.61,0c-9.77,6.96-19.34,14.28-28.71,21.96-54.3,44.51-98.38,98.19-130.72,158.18,88.29,27.16,171.56,67.98,248.36,121.83,26.68,18.71,52.15,38.69,76.36,59.9V0h-165.29Z"/>
        <path class="cls-3" d="M2878.74,362.99c-73.26-51.37-152.97-89.72-236.33-114.44-7.69,20.98-14.06,42.52-19.06,64.53,14.33,6.5,27.61,15.89,38.95,28.14,45.74,49.41,42.75,126.81-6.65,172.55-10.69,9.89-22.68,17.51-35.39,22.86,4.7,23.43,11,46.48,18.85,69.02,83.6-27.54,170.61-42.39,259.63-44.23,33.28-.68,66.36.46,99.16,3.42v-100.15c-35.99-37.24-75.81-71.31-119.16-101.7Z"/>
        <path class="cls-3" d="M2900.28,635.94c-79.82,1.65-157.65,14.69-231.63,38.31,16.94,32.74,37.44,63.93,61.36,93.11,25.52,31.14,54.06,58.92,85.08,83.04h182.81v-210.72c-26.55-2.61-53.36-3.92-80.37-3.92-5.75,0-11.49.06-17.25.18Z"/>
      </g>
    </g>
  </g>
</svg>