<?xml version="1.0" encoding="UTF-8"?>
<svg id="Calque_2" data-name="Calque 2" xmlns="http://www.w3.org/2000/svg" viewBox="0 0 221.34 221.35">
  <defs>
    <style>
      .cls-1 {
        fill: #009a96;
      }
    </style>
  </defs>
  <g id="Calque_1-2" data-name="Calque 1">
    <g>
      <path class="cls-1" d="M174.17,173.47c-1.18-.85-2.56-1.31-4.14-1.31s-2.96.46-4.27,1.38c-1.31.92-2.23,2.17-2.69,3.81h13.6c-.46-1.71-1.31-3.02-2.5-3.88"/>
      <path class="cls-1" d="M42.25,167.09h-7.8v8.76l7.8.06c1.63,0,2.9-.42,3.87-1.27s1.45-1.93,1.45-3.26-.48-2.3-1.45-3.08c-.97-.78-2.24-1.21-3.87-1.21"/>
      <path class="cls-1" d="M165.43,188.45c1.25,1.12,2.76,1.71,4.53,1.71,3.28,0,5.65-1.25,7.03-3.81l9.33,1.9c-1.38,3.42-3.48,5.98-6.31,7.68-2.82,1.71-6.17,2.56-10.05,2.56-4.86,0-9-1.64-12.35-4.93-3.35-3.29-5.06-7.49-5.06-12.61s1.71-9.26,5.06-12.55c3.35-3.28,7.49-4.93,12.41-4.93s8.8,1.58,12.02,4.79c3.22,3.22,4.8,7.42,4.93,12.68l.07,2.83h-24.17c.46,1.97,1.31,3.55,2.56,4.66M147.59,197.98h-9.61l-18.61-20.85v20.85h-11.6v-40.49h9.55l18.61,21.58v-21.58h11.66v40.49ZM102.14,197.98h-11.67v-15.49h-14.53v15.49h-11.88v-40.49h11.88v15.74h14.53v-15.74h11.67v40.49ZM47.14,197.98l-11.12-12.93h-1.57v12.93h-11.6v-40.49h21.58c4.35,0,7.86,1.27,10.52,3.75,2.66,2.48,3.99,5.74,3.99,9.79,0,3.2-.85,5.98-2.6,8.28-1.75,2.3-4.11,3.93-7.13,4.83l12.07,13.84h-14.12ZM0,221.35h221.34V0H0v221.35Z"/>
    </g>
  </g>
</svg>