<?xml version="1.0" encoding="UTF-8"?>
<svg id="Calque_2" data-name="Calque 2" xmlns="http://www.w3.org/2000/svg" viewBox="0 0 836.35 221.52">
  <defs>
    <style>
      .cls-1 {
        fill: #99d9d9;
      }

      .cls-2 {
        fill: #009a96;
      }
    </style>
  </defs>
  <g id="Calque_1-2" data-name="Calque 1">
    <g>
      <path class="cls-1" d="M767.72,81.29c-8.86,10.48-15.2,22.36-18.88,35.33,13.79,4.57,23.66,16.96,24.88,31.63,1.23,14.64-6.41,28.49-19.22,35.31,7.45,15.61,18.82,28.5,32.55,37.79h49.29v-93.59c-13.1-25.17-34.15-44.7-59.28-56.08-3.31,2.96-6.43,6.17-9.34,9.61"/>
      <path class="cls-1" d="M792.14,60.65c17.19,9.16,32.21,21.74,44.21,36.81v-49.79c-1.32.06-2.64.14-3.96.25-14.44,1.21-28.12,5.6-40.24,12.74"/>
      <path class="cls-1" d="M698.87,63.35c-.15,14.29-11.82,25.88-26.15,25.88-6.61,0-12.97-2.52-17.78-6.98-16.84,11.45-30.45,26.71-39.94,44.7v94.41h146.17c-9.63-9.67-17.44-21.02-22.98-33.52-19.16.44-35.66-14.17-37.29-33.47-1.61-19.28,12.22-36.45,31.14-39.21,4.1-16.24,12.03-31.62,22.99-44.58,1.53-1.8,3.11-3.55,4.73-5.24-11.04-3.15-22.62-4.83-34.48-4.83-8.86,0-17.73.96-26.41,2.85"/>
      <path class="cls-1" d="M742.74,131.41c-1.17-.33-2.39-.54-3.66-.65-.59-.05-1.17-.07-1.76-.07-1.48,0-2.95.16-4.4.47-8.88,1.93-15.36,9.32-16.14,18.39-.97,11.33,7.46,21.33,18.79,22.3.26.02.51.04.76.05h.04c3.3.16,6.63-.49,9.62-1.87,6.7-3.11,11.25-9.61,11.88-16.96.85-9.95-5.51-19.05-15.13-21.65"/>
      <path class="cls-1" d="M646.96,67.6c-.26-1.49-.39-3.01-.39-4.53,0-14.42,11.73-26.15,26.15-26.15,8.36,0,16.08,3.92,21.01,10.58,26.71-6.15,54.73-4.31,80.47,5.13,16.43-12.12,35.94-19.5,56.8-21.25,1.79-.15,3.57-.26,5.35-.32V0h-221.35v96.78c9.02-11.26,19.76-21.08,31.96-29.17"/>
      <path class="cls-2" d="M529.46,147.09c15.4,0,21.26,11.18,21.81,19.61h-43.63c1.1-8.8,7.33-19.61,21.81-19.61M483.63,174.96c0,28.41,20.35,46.56,47.29,46.56,13.75,0,27.5-4.03,36.48-12.28l-10.27-15.03c-5.68,5.5-15.4,8.8-23.65,8.8-15.03,0-24.01-9.35-25.48-20.53h65.81v-5.13c0-28.96-17.97-48.76-44.36-48.76s-45.83,20.71-45.83,46.38M469.85,219.32v-62.51c0-17.23-9.35-28.23-28.78-28.23-14.48,0-25.3,6.97-30.98,13.75v-11.55h-23.28v88.54h23.28v-59.58c3.85-5.32,11-10.45,20.16-10.45,9.9,0,16.31,4.22,16.31,16.5v53.53h23.28ZM340.27,206.48c0,8.07,6.78,14.85,14.85,14.85s14.85-6.78,14.85-14.85-6.78-14.85-14.85-14.85-14.85,6.78-14.85,14.85M284.74,200.8c-14.48,0-22.55-11.92-22.55-25.85s8.07-25.66,22.55-25.66,22.73,11.92,22.73,25.66-8.25,25.85-22.73,25.85M284.74,221.52c29.33,0,46.93-21.26,46.93-46.56s-17.6-46.38-46.93-46.38-46.74,21.26-46.74,46.38,17.6,46.56,46.74,46.56M152.07,207.77c9.35,8.61,24.2,13.75,39.6,13.75,24.56,0,38.31-12.1,38.31-28.41,0-22-20.35-26.03-35.56-28.96-9.9-2.02-16.86-4.03-16.86-9.53,0-5.13,5.5-8.25,13.93-8.25,10.82,0,20.9,4.58,26.21,10.27l9.17-15.95c-8.61-6.97-20.53-12.1-35.56-12.1-23.28,0-36.3,13.01-36.3,27.86,0,21.08,19.61,24.75,34.83,27.68,10.08,2.02,17.78,4.22,17.78,10.45,0,5.5-4.77,8.98-14.85,8.98-11,0-24.2-6.05-30.61-12.1l-10.08,16.32ZM102.1,147.09c15.4,0,21.26,11.18,21.81,19.61h-43.63c1.1-8.8,7.33-19.61,21.81-19.61M56.27,174.96c0,28.41,20.35,46.56,47.29,46.56,13.75,0,27.5-4.03,36.48-12.28l-10.27-15.03c-5.68,5.5-15.4,8.8-23.65,8.8-15.03,0-24.01-9.35-25.48-20.53h65.81v-5.13c0-28.96-17.96-48.76-44.36-48.76s-45.83,20.71-45.83,46.38M139.31,91h-21.45l-24.56,26.4h16.31l29.7-26.4ZM23.28,219.32v-58.47c3.85-5.68,14.11-9.9,21.81-9.9,2.57,0,4.77.18,6.41.55v-22.73c-11,0-22,6.23-28.23,14.11v-12.1H0v88.54h23.28Z"/>
    </g>
  </g>
</svg>