<?xml version="1.0" encoding="UTF-8"?>
<svg id="Calque_2" data-name="Calque 2" xmlns="http://www.w3.org/2000/svg" viewBox="0 0 668.13 135.05">
  <defs>
    <style>
      .cls-1 {
        fill: #009a96;
      }
    </style>
  </defs>
  <g id="Calque_1-2" data-name="Calque 1">
    <g>
      <path class="cls-1" d="M185.61,83.72c4.5-6.43,6.75-14.16,6.75-23.21,0-6.05-.98-11.54-2.93-16.46-1.95-4.92-4.99-9.01-9.11-12.26-4.12-3.25-9.41-5.37-15.86-6.38-1.4-.25-2.99-.41-4.76-.49-1.77-.08-3.19-.11-4.24-.11h-45.6v108h20.4v-36.6h22.76l17.74,36.6h23.1l-19.5-40.01c4.72-2.09,8.48-5.11,11.25-9.08ZM130.26,43.85h24.3c1.05,0,2.2.05,3.45.15,1.25.1,2.4.3,3.45.6,2.75.75,4.88,2.01,6.38,3.79,1.5,1.78,2.54,3.75,3.11,5.93.57,2.17.86,4.24.86,6.19s-.29,4.01-.86,6.19c-.58,2.17-1.61,4.15-3.11,5.92-1.5,1.78-3.63,3.04-6.38,3.79-1.05.3-2.2.5-3.45.6-1.25.1-2.4.15-3.45.15h-24.3v-33.3Z"/>
      <rect class="cls-1" x="461.7" y="112.4" width="20.4" height="20.4"/>
      <path class="cls-1" d="M658.01,98h9.82c.85-9.8-.15-18.32-3-25.57-2.85-7.25-7.25-12.87-13.2-16.88-5.95-4-13.18-6-21.68-6-8,0-15.08,1.81-21.23,5.44-6.15,3.63-10.98,8.71-14.48,15.26-3.5,6.55-5.25,14.25-5.25,23.1,0,8.1,1.79,15.29,5.36,21.56,3.57,6.28,8.53,11.2,14.85,14.78,6.32,3.57,13.64,5.36,21.94,5.36,7.8,0,14.99-2.05,21.56-6.15s11.39-9.85,14.44-17.25l-20.4-5.85c-1.5,3.3-3.68,5.82-6.53,7.57-2.85,1.75-6.27,2.62-10.27,2.62-6.35,0-11.16-2.06-14.44-6.19-2.4-3.02-3.91-6.96-4.55-11.81h47.04ZM630.86,67.25c5.95,0,10.24,1.81,12.86,5.44,1.72,2.38,2.87,5.78,3.46,10.16h-35.66c.8-3.74,2.12-6.84,4-9.26,3.27-4.23,8.39-6.34,15.34-6.34Z"/>
      <polygon class="cls-1" points="263.19 11.3 248.04 11.3 235.59 40.55 250.74 40.55 263.19 11.3"/>
      <path class="cls-1" d="M263.19,55.55c-5.95-4-13.18-6-21.68-6-8,0-15.07,1.81-21.23,5.44-6.15,3.63-10.98,8.71-14.47,15.26-3.5,6.55-5.25,14.25-5.25,23.1,0,8.1,1.79,15.29,5.36,21.56,3.57,6.28,8.52,11.2,14.85,14.78,6.32,3.57,13.64,5.36,21.94,5.36,7.8,0,14.99-2.05,21.56-6.15,6.57-4.1,11.39-9.85,14.44-17.25l-20.4-5.85c-1.5,3.3-3.68,5.82-6.53,7.57-2.85,1.75-6.28,2.62-10.27,2.62-6.35,0-11.16-2.06-14.44-6.19-2.4-3.02-3.91-6.96-4.55-11.81h56.86c.85-9.8-.15-18.32-3-25.57-2.85-7.25-7.25-12.87-13.2-16.88ZM242.41,67.25c5.95,0,10.24,1.81,12.86,5.44,1.72,2.38,2.87,5.78,3.46,10.16h-35.66c.8-3.74,2.12-6.84,4-9.26,3.27-4.23,8.39-6.34,15.34-6.34Z"/>
      <path class="cls-1" d="M574.55,71.11c-.95-3.57-2.54-7.01-4.76-10.31-2.22-3.3-5.34-6.03-9.34-8.18-4-2.15-9.18-3.22-15.53-3.22-7.95,0-14.54,1.72-19.76,5.18-2.46,1.62-4.61,3.49-6.49,5.59v-8.36h-18.15v81h20.7v-41.1c0-5.05.56-9.1,1.69-12.15,1.12-3.05,2.56-5.36,4.31-6.94,1.75-1.57,3.62-2.64,5.62-3.19,2-.55,3.87-.82,5.62-.82,4.35,0,7.71.97,10.09,2.92,2.37,1.95,4.09,4.38,5.14,7.28,1.05,2.9,1.68,5.79,1.88,8.66.2,2.88.3,5.24.3,7.09v38.25h20.7v-45.45c0-1.35-.1-3.5-.3-6.45-.2-2.95-.78-6.21-1.73-9.79Z"/>
      <path class="cls-1" d="M347.93,89.94c-3.72-2.12-8.66-3.99-14.81-5.59-6.3-1.6-10.99-2.9-14.06-3.9-3.07-1-5.1-1.97-6.07-2.93-.97-.95-1.46-2.12-1.46-3.53,0-2.35,1.14-4.15,3.41-5.4,2.28-1.25,5.29-1.75,9.04-1.5,3.85.3,6.9,1.32,9.15,3.07,2.25,1.75,3.55,4.12,3.9,7.12l20.85-3.75c-.7-4.9-2.56-9.15-5.59-12.75-3.03-3.6-6.99-6.38-11.89-8.32-4.9-1.95-10.53-2.93-16.88-2.93s-12.24,1.04-17.06,3.11c-4.83,2.08-8.56,5.03-11.21,8.85-2.65,3.83-3.97,8.34-3.97,13.54,0,4.15.87,7.69,2.62,10.61,1.75,2.93,4.6,5.44,8.55,7.54,3.95,2.1,9.23,4,15.82,5.7,5.85,1.55,10.16,2.8,12.94,3.75,2.77.95,4.56,1.91,5.36,2.89.8.97,1.2,2.26,1.2,3.86,0,2.55-1,4.54-3,5.96-2,1.42-4.85,2.14-8.55,2.14-4.5,0-8.21-1.07-11.14-3.22-2.93-2.15-4.81-5.12-5.66-8.92l-20.85,3.15c1.35,8.45,5.16,14.99,11.44,19.61,6.27,4.62,14.51,6.94,24.71,6.94s18.9-2.37,24.9-7.12c6-4.75,9-11.28,9-19.57,0-4.2-.85-7.79-2.55-10.76-1.7-2.98-4.41-5.53-8.14-7.65Z"/>
      <path class="cls-1" d="M430.05,55.03c-6.18-3.65-13.34-5.47-21.49-5.47s-15.08,1.8-21.23,5.4-10.98,8.61-14.48,15.04c-3.5,6.43-5.25,13.86-5.25,22.31s1.71,15.74,5.14,22.16c3.42,6.42,8.21,11.46,14.36,15.11,6.15,3.65,13.3,5.47,21.45,5.47s15.24-1.81,21.41-5.44c6.17-3.62,11-8.65,14.48-15.07,3.47-6.42,5.21-13.84,5.21-22.24s-1.72-15.74-5.18-22.16c-3.45-6.42-8.26-11.46-14.44-15.11ZM423.23,109.37c-3.22,4.42-8.11,6.64-14.66,6.64s-11.16-2.14-14.44-6.41c-3.28-4.28-4.91-10.04-4.91-17.29,0-4.7.69-8.82,2.06-12.38,1.37-3.55,3.49-6.32,6.34-8.32,2.85-2,6.5-3,10.95-3,6.45,0,11.31,2.15,14.59,6.45,3.27,4.3,4.91,10.05,4.91,17.25s-1.61,12.64-4.84,17.06Z"/>
      <polygon class="cls-1" points="47.85 58.85 66.6 77.6 15.75 77.6 15.75 0 0 0 0 93.5 66.6 93.5 47.85 112.25 57.3 121.85 93.6 85.55 57.3 49.25 47.85 58.85"/>
    </g>
  </g>
</svg>