<?xml version="1.0" encoding="UTF-8"?>
<svg id="Calque_1" xmlns="http://www.w3.org/2000/svg" version="1.1" xmlns:xlink="http://www.w3.org/1999/xlink" viewBox="0 0 4876 5626.5">
  <!-- Generator: Adobe Illustrator 30.2.1, SVG Export Plug-In . SVG Version: 2.1.1 Build 1)  -->
  <defs>
    <style>
      .st0 {
        stroke-dasharray: 12.2 12.2;
      }

      .st0, .st1, .st2, .st3, .st4, .st5 {
        fill: none;
      }

      .st0, .st2, .st3, .st4, .st5 {
        stroke: #1d1d1b;
        stroke-miterlimit: 10;
        stroke-width: 2.8px;
      }

      .st6, .st7 {
        opacity: .2;
      }

      .st8 {
        fill: #009a96;
      }

      .st9 {
        fill: #2d6b6a;
      }

      .st10 {
        fill: #59bfbd;
      }

      .st3 {
        stroke-dasharray: 12;
      }

      .st11 {
        display: none;
      }

      .st4 {
        stroke-dasharray: 12.5 12.5;
      }

      .st5 {
        stroke-dasharray: 12 12;
      }

      .st12 {
        clip-path: url(#clippath);
      }

      .st7 {
        fill: #000300;
        isolation: isolate;
      }
    </style>
    <clipPath id="clippath">
      <rect class="st1" x="4169.9" y="2419.8" width="850.4" height="850.4"/>
    </clipPath>
  </defs>
  <g>
    <path class="st9" d="M4068.3,4810.7c103.2,0,142.6,75,146.3,131.5h-292.5c7.3-58.9,49.2-131.5,146.3-131.5M3761,4997.4c0,190.5,136.4,312.2,317.1,312.2s184.4-27,244.7-82.4l-68.9-100.8c-38.1,36.9-103.2,58.9-158.6,58.9-100.8,0-161-62.7-170.9-137.7h441.3v-34.4c0-194.2-120.5-326.9-297.4-326.9s-307.3,138.9-307.3,310.9M3668.6,5294.9v-419.2c0-115.6-62.7-189.3-192.9-189.3s-169.6,46.7-207.7,92.1v-77.5h-156.1v593.7h156.1v-399.5c25.9-35.6,73.7-70,135.3-70s109.4,28.3,109.4,110.7v358.9h156.1-.1ZM2799.7,5208.9c0,54.1,45.4,99.6,99.6,99.6s99.6-45.4,99.6-99.6-45.4-99.6-99.6-99.6-99.6,45.4-99.6,99.6M2427.4,5170.8c-97,0-151.2-79.9-151.2-173.4s54.1-172.1,151.2-172.1,152.4,79.9,152.4,172.1-55.3,173.4-152.4,173.4M2427.4,5309.7c196.7,0,314.7-142.6,314.7-312.2s-118-310.9-314.7-310.9-313.4,142.6-313.4,310.9,118,312.2,313.4,312.2M1537.7,5217.5c62.7,57.8,162.3,92.1,265.5,92.1,164.7,0,256.9-81.1,256.9-190.5s-136.4-174.5-238.5-194.2c-66.4-13.5-113.1-27-113.1-64s36.9-55.3,93.4-55.3,140.2,30.8,175.8,68.9l61.5-106.9c-57.8-46.7-137.7-81.1-238.5-81.1-156.1,0-243.4,87.3-243.4,186.9,0,141.3,131.5,165.9,233.6,185.6,67.6,13.5,119.2,28.3,119.2,70s-31.9,60.2-99.6,60.2-162.3-40.5-205.3-81.1l-67.6,109.4h0ZM1202.7,4810.7c103.2,0,142.6,75,146.3,131.5h-292.5c7.3-58.9,49.2-131.5,146.3-131.5M895.4,4997.4c0,190.5,136.4,312.2,317.1,312.2s184.4-27,244.7-82.4l-68.9-100.8c-38.1,36.9-103.2,58.9-158.6,58.9-100.8,0-161-62.7-170.9-137.7h441.3v-34.4c0-194.2-120.5-326.9-297.4-326.9s-307.3,138.9-307.3,310.9M1452.2,4434.5h-143.8l-164.7,177h109.4l199.1-177ZM674.1,5294.9v-392.1c25.9-38.1,94.6-66.4,146.3-66.4s31.9,1.3,43,3.7v-152.4c-73.7,0-147.5,41.8-189.3,94.6v-81.1h-156.1v593.7h156.1Z"/>
    <g>
      <g>
        <path class="st10" d="M2404.6,2889.5c-115.6,18.1-197.8,130.4-179.7,246,18.1,115.6,130.4,197.8,246,179.7,115.6-18.1,197.8-130.4,180-246-18.1-115.6-130.4-197.8-246-179.7h-.3Z"/>
        <path class="st10" d="M510.3,316.9v1594c208.1-170.8,438.5-308.7,687-411.5,3.9-59.3,19.2-119,47.4-175.5,112.8-225.6,388.3-317,613.7-204.2,80.2,40.1,145.1,101.4,189.4,176.9,124.8-9.2,250.4-9.8,376.4-1.7,232.1,14.8,459.1,58.8,678.3,131.2,62.1-46.8,127.3-90.5,195-130.4,233.4-137.9,488.1-228.4,757.4-268.8,103.6-15.6,207.3-23.4,310.9-23.4V316.9H510.3Z"/>
        <path class="st10" d="M2341.3,3647.2c-81.6-14.2-161.3-47.4-232.6-99.7-245.4-181.4-297.5-528.7-115.9-774.2,87.2-118.1,212.8-191.4,347.1-215.3,67.7-253.8,181.9-490.6,339.9-704,41.2-55.7,85-109.2,130.9-160.2-183.9-44.9-371.9-67.1-560.2-67.1s-100.6,1.7-150.7,4.7c-8.1,34.8-20.3,69.1-36.8,102-80,159.9-242.1,252.7-409.8,252.7s-138.5-15.6-203.9-48.5c-58.2-29-107.3-69.1-146.5-115.9-301.4,128.7-569.7,315.1-792,548.5v1801.8h2052.5c-.8-1.1-1.4-2.2-2.2-3.6-96.9-163.8-170.5-338.5-219.5-521.2h-.3Z"/>
        <path class="st10" d="M3322.7,1881.9c-51-25.4-102.2-49-154.3-70.8-78.8,73.5-151.5,154.9-217.3,243.8-124.5,168.3-216.2,353.8-273.8,548.5,30.9,14.8,60.7,32.9,89.4,53.8,245.4,181.4,297.5,528.7,116.2,774.2-55.2,74.7-125.6,131.2-203.9,169.1,61.3,208.1,159.9,401.4,291.1,571.6h1395.4v-1273.1c-225.9-424.8-580.8-785.9-1042.7-1017.1h0Z"/>
        <path class="st10" d="M3477.1,1581.3c329.3,165.2,616.5,390,853.8,668.3,11.7,13.7,23.1,27.3,34.5,41.2v-949.4c-86.4,0-173.6,6.7-260.7,19.8-224.8,33.7-436.8,108.9-627.6,220.4v-.3Z"/>
      </g>
      <path class="st10" d="M2404.6,2889.5c-115.6,18.1-197.8,130.4-179.7,246,18.1,115.6,130.4,197.8,246,179.7,115.6-18.1,197.8-130.4,180-246-18.1-115.6-130.4-197.8-246-179.7h-.3Z"/>
    </g>
  </g>
  <g id="construction" class="st11">
    <g>
      <line class="st2" x1="558.7" y1="2986.7" x2="564.7" y2="2986.7"/>
      <line class="st5" x1="576.6" y1="2986.7" x2="5504" y2="2986.7"/>
      <line class="st2" x1="5510" y1="2986.7" x2="5516" y2="2986.7"/>
    </g>
    <g>
      <line class="st2" x1="558.7" y1="2703.2" x2="564.7" y2="2703.2"/>
      <line class="st5" x1="576.6" y1="2703.2" x2="5504" y2="2703.2"/>
      <line class="st2" x1="5510" y1="2703.2" x2="5516" y2="2703.2"/>
    </g>
    <g>
      <line class="st2" x1="558.7" y1="2419.8" x2="564.7" y2="2419.8"/>
      <line class="st5" x1="576.6" y1="2419.8" x2="5504" y2="2419.8"/>
      <line class="st2" x1="5510" y1="2419.8" x2="5516" y2="2419.8"/>
    </g>
    <g>
      <line class="st2" x1="2965.2" y1="3586.4" x2="2965.2" y2="3580.4"/>
      <line class="st5" x1="2965.2" y1="3568.4" x2="2965.2" y2="2136"/>
      <line class="st2" x1="2965.2" y1="2130" x2="2965.2" y2="2124"/>
    </g>
    <g>
      <line class="st2" x1="2217.5" y1="3432.9" x2="2217.5" y2="3426.9"/>
      <line class="st4" x1="2217.5" y1="3414.4" x2="2217.5" y2="3196"/>
      <line class="st2" x1="2217.5" y1="3189.8" x2="2217.5" y2="3183.8"/>
    </g>
    <g>
      <line class="st2" x1="2312.6" y1="3432.9" x2="2312.6" y2="3426.9"/>
      <line class="st4" x1="2312.6" y1="3414.4" x2="2312.6" y2="3196"/>
      <line class="st2" x1="2312.6" y1="3189.8" x2="2312.6" y2="3183.8"/>
    </g>
    <g>
      <line class="st2" x1="4169.9" y1="3586.4" x2="4169.9" y2="3580.4"/>
      <line class="st5" x1="4169.9" y1="3568.4" x2="4169.9" y2="2136"/>
      <line class="st2" x1="4169.9" y1="2130" x2="4169.9" y2="2124"/>
    </g>
    <g>
      <line class="st2" x1="1128.1" y1="3586.4" x2="1128.1" y2="3580.4"/>
      <line class="st5" x1="1128.1" y1="3568.4" x2="1128.1" y2="2136"/>
      <line class="st2" x1="1128.1" y1="2130" x2="1128.1" y2="2124"/>
    </g>
    <g>
      <line class="st2" x1="5020.3" y1="3586.4" x2="5020.3" y2="3580.4"/>
      <line class="st5" x1="5020.3" y1="3568.4" x2="5020.3" y2="2136"/>
      <line class="st2" x1="5020.3" y1="2130" x2="5020.3" y2="2124"/>
    </g>
    <g>
      <line class="st2" x1="3177.8" y1="3586.4" x2="3177.8" y2="3580.4"/>
      <line class="st5" x1="3177.8" y1="3568.4" x2="3177.8" y2="2136"/>
      <line class="st2" x1="3177.8" y1="2130" x2="3177.8" y2="2124"/>
    </g>
    <g>
      <line class="st2" x1="3461.3" y1="3586.4" x2="3461.3" y2="3580.4"/>
      <line class="st5" x1="3461.3" y1="3568.4" x2="3461.3" y2="2136"/>
      <line class="st2" x1="3461.3" y1="2130" x2="3461.3" y2="2124"/>
    </g>
    <g>
      <line class="st2" x1="3744.7" y1="3586.4" x2="3744.7" y2="3580.4"/>
      <line class="st5" x1="3744.7" y1="3568.4" x2="3744.7" y2="2136"/>
      <line class="st2" x1="3744.7" y1="2130" x2="3744.7" y2="2124"/>
    </g>
    <g>
      <line class="st2" x1="4453.4" y1="3586.4" x2="4453.4" y2="3580.4"/>
      <line class="st5" x1="4453.4" y1="3568.4" x2="4453.4" y2="2136"/>
      <line class="st2" x1="4453.4" y1="2130" x2="4453.4" y2="2124"/>
    </g>
    <g>
      <line class="st2" x1="4736.9" y1="3586.4" x2="4736.9" y2="3580.4"/>
      <line class="st5" x1="4736.9" y1="3568.4" x2="4736.9" y2="2136"/>
      <line class="st2" x1="4736.9" y1="2130" x2="4736.9" y2="2124"/>
    </g>
    <g>
      <line class="st2" x1="4028.2" y1="3586.4" x2="4028.2" y2="3580.4"/>
      <line class="st5" x1="4028.2" y1="3568.4" x2="4028.2" y2="2136"/>
      <line class="st2" x1="4028.2" y1="2130" x2="4028.2" y2="2124"/>
    </g>
    <g>
      <line class="st2" x1="3177.8" y1="3586.4" x2="3177.8" y2="3580.4"/>
      <line class="st5" x1="3177.8" y1="3568.4" x2="3177.8" y2="2136"/>
      <line class="st2" x1="3177.8" y1="2130" x2="3177.8" y2="2124"/>
    </g>
    <g>
      <line class="st2" x1="558.7" y1="3270.2" x2="564.7" y2="3270.2"/>
      <line class="st5" x1="576.6" y1="3270.2" x2="5504" y2="3270.2"/>
      <line class="st2" x1="5510" y1="3270.2" x2="5516" y2="3270.2"/>
    </g>
    <g>
      <path d="M2389.8,3409.7v-30.4l-6.1,6.4-3.3-3.5,10.1-10.4h5v37.8h-5.7Z"/>
      <path d="M2403.2,3415.8c.6.3,1.6.5,2.3.5,1.9,0,3.1-.6,4-2.7l1.6-3.6-11.3-27.7h5.4l8.6,21.5,8.6-21.5h5.5l-13.5,32.6c-1.8,4.3-4.8,5.8-8.7,5.9-.9,0-2.4-.2-3.2-.4l.8-4.6h-.1Z"/>
    </g>
    <g>
      <path d="M2251.2,3409.7v-30.4l-6.1,6.4-3.3-3.5,10.1-10.4h5v37.8h-5.7Z"/>
      <path d="M2263.9,3409.7v-3.9l14.3-19h-14.3v-4.5h21v3.8l-14.4,19.2h14.6v4.4h-21.3,0Z"/>
    </g>
    <g>
      <path d="M3590.4,3051.7v-30.4l-6.1,6.4-3.3-3.5,10.1-10.4h5v37.8h-5.7Z"/>
      <path d="M3603.1,3051.7v-3.9l14.3-19h-14.3v-4.5h21v3.8l-14.4,19.2h14.6v4.4h-21.3,0Z"/>
    </g>
    <g>
      <line class="st2" x1="2366.5" y1="3432.9" x2="2366.5" y2="3426.9"/>
      <line class="st0" x1="2366.5" y1="3414.7" x2="2366.5" y2="2958.2"/>
      <line class="st2" x1="2366.5" y1="2952.1" x2="2366.5" y2="2946.1"/>
    </g>
    <g>
      <line class="st2" x1="2440.7" y1="3432.9" x2="2440.7" y2="3426.9"/>
      <line class="st0" x1="2440.7" y1="3414.7" x2="2440.7" y2="2958.2"/>
      <line class="st2" x1="2440.7" y1="2952.1" x2="2440.7" y2="2946.1"/>
    </g>
    <g>
      <path class="st3" d="M3595.7,2987.1c-25.5,4-43.6,28.8-39.7,54.3,4,25.5,28.8,43.6,54.3,39.7,25.5-4,43.6-28.8,39.7-54.3-4-25.5-28.8-43.6-54.3-39.7h0Z"/>
      <path class="st3" d="M3177.8,2771.2c45.9-37.7,96.7-68.1,151.5-90.8.8-13.1,4.2-26.2,10.5-38.7,24.9-49.8,85.6-70,135.4-45.1,17.7,8.8,32,22.4,41.8,39,27.5-2,55.2-2.2,83-.4,51.2,3.3,101.2,13,149.6,28.9,13.7-10.3,28.1-20,43-28.8,51.5-30.4,107.7-50.4,167.1-59.3,22.9-3.4,45.7-5.1,68.6-5.2"/>
      <path class="st3" d="M3630.6,3270c-.2-.3-.3-.5-.5-.8-21.4-36.2-37.6-74.7-48.4-115-18-3.2-35.6-10.4-51.3-22-54.1-40-65.6-116.6-25.6-170.8,19.2-26,46.9-42.2,76.5-47.5,15-56,40.1-108.2,75-155.3,9.1-12.3,18.7-24.1,28.9-35.3-40.6-9.9-82-14.8-123.6-14.8s-22.2.4-33.2,1.1c-1.8,7.7-4.5,15.2-8.1,22.5-17.7,35.3-53.4,55.7-90.4,55.7s-30.5-3.4-45-10.7c-12.8-6.4-23.7-15.2-32.3-25.6-66.5,28.4-125.7,69.5-174.7,121"/>
      <path class="st3" d="M4028.2,2989.2c-49.8-93.7-128.1-173.3-230-224.3-11.2-5.6-22.6-10.8-34-15.6-17.4,16.2-33.4,34.2-47.9,53.7-27.4,37.1-47.7,78-60.4,121,6.8,3.3,13.4,7.2,19.7,11.9,54.1,40,65.6,116.6,25.6,170.8-12.2,16.4-27.7,29-45,37.3,13.5,45.9,35.3,88.5,64.2,126.1"/>
      <path class="st3" d="M4028.2,2645.6c-19.1,0-38.3,1.5-57.5,4.4-49.6,7.4-96.4,24-138.4,48.6,72.6,36.5,136,86.1,188.3,147.4,2.6,3,5.1,6,7.6,9.1"/>
    </g>
    <g>
      <path d="M3022.3,2315.3c10.5,0,14.8,10.1,14.8,19.5s-4.3,19.6-14.8,19.6-14.8-10.2-14.8-19.6,4.3-19.5,14.8-19.5ZM3022.3,2320.4c-6.7,0-9,7.1-9,14.5s2.3,14.5,9,14.5,9-7.1,9-14.5-2.3-14.5-9-14.5Z"/>
      <path d="M3044.8,2347.2c1.9,0,3.6,1.6,3.6,3.5s-1.6,3.6-3.6,3.6-3.5-1.6-3.5-3.6,1.6-3.5,3.5-3.5Z"/>
      <path d="M3054.6,2353.7l14.7-32.8h-20v-5h26.5v3.9l-15.1,33.9h-6.2.1Z"/>
      <path d="M3084.2,2344.6c2.5,3.1,5.9,4.8,10.3,4.8s8.2-3.2,8.2-7.4-3.2-7.4-8.1-7.4-6,1-8.5,3.4l-4.1-1.3v-20.7h23.9v5h-18.3v12.1c1.8-1.8,5-3.3,8.7-3.3,6.3,0,12.1,4.4,12.1,12.1s-5.9,12.6-13.9,12.6-10.8-2.3-13.7-6l3.3-3.9h.1Z"/>
      <path d="M3131.9,2353.7l-7.7-10.7-7.7,10.7h-5.8l10.3-14.1-9.6-13.3h5.8l7.1,9.9,7-9.9h5.8l-9.7,13.3,10.3,14.1h-5.8Z"/>
    </g>
    <g>
      <path d="M4062.5,2315.3c10.5,0,14.8,10.1,14.8,19.5s-4.3,19.6-14.8,19.6-14.8-10.2-14.8-19.6,4.3-19.5,14.8-19.5ZM4062.5,2320.4c-6.7,0-9,7.1-9,14.5s2.3,14.5,9,14.5,9-7.1,9-14.5-2.3-14.5-9-14.5Z"/>
      <path d="M4085,2347.2c1.9,0,3.6,1.6,3.6,3.5s-1.6,3.6-3.6,3.6-3.5-1.6-3.5-3.6,1.6-3.5,3.5-3.5Z"/>
      <path d="M4098.6,2344.6c2.5,3.1,5.9,4.8,10.3,4.8s8.2-3.2,8.2-7.4-3.2-7.4-8.1-7.4-6,1-8.5,3.4l-4.1-1.3v-20.7h23.9v5h-18.3v12.1c1.8-1.8,5-3.3,8.7-3.3,6.3,0,12.1,4.4,12.1,12.1s-5.9,12.6-13.9,12.6-10.8-2.3-13.7-6l3.3-3.9h0Z"/>
      <path d="M4146.4,2353.7l-7.7-10.7-7.7,10.7h-5.8l10.3-14.1-9.6-13.3h5.8l7.1,9.9,7-9.9h5.8l-9.7,13.3,10.3,14.1h-5.8,0Z"/>
    </g>
    <g>
      <path d="M3872.9,2353.7v-30.4l-6.1,6.4-3.3-3.5,10.1-10.4h5v37.8h-5.7Z"/>
      <path d="M3904.3,2353.7l-7.7-10.7-7.7,10.7h-5.8l10.3-14.1-9.6-13.3h5.8l7.1,9.9,7-9.9h5.8l-9.7,13.3,10.3,14.1h-5.8Z"/>
    </g>
    <g>
      <path d="M3589.4,2353.7v-30.4l-6.1,6.4-3.3-3.5,10.1-10.4h5v37.8h-5.7Z"/>
      <path d="M3620.9,2353.7l-7.7-10.7-7.7,10.7h-5.8l10.3-14.1-9.6-13.3h5.8l7.1,9.9,7-9.9h5.8l-9.7,13.3,10.3,14.1h-5.8Z"/>
    </g>
    <g>
      <path d="M3305.9,2353.7v-30.4l-6.1,6.4-3.3-3.5,10.1-10.4h5v37.8h-5.7Z"/>
      <path d="M3337.4,2353.7l-7.7-10.7-7.7,10.7h-5.8l10.3-14.1-9.6-13.3h5.8l7.1,9.9,7-9.9h5.8l-9.7,13.3,10.3,14.1h-5.8Z"/>
    </g>
    <g>
      <path d="M5101.7,2575.5v-30.4l-6.1,6.4-3.3-3.5,10.1-10.4h5v37.8h-5.7Z"/>
      <path d="M5133.1,2575.5l-7.7-10.7-7.7,10.7h-5.8l10.3-14.1-9.6-13.3h5.8l7.1,9.9,7-9.9h5.8l-9.7,13.3,10.3,14.1h-5.8,0Z"/>
    </g>
    <g>
      <path d="M5101.7,2855.2v-30.4l-6.1,6.4-3.3-3.5,10.1-10.4h5v37.8h-5.7Z"/>
      <path d="M5133.1,2855.2l-7.7-10.7-7.7,10.7h-5.8l10.3-14.1-9.6-13.3h5.8l7.1,9.9,7-9.9h5.8l-9.7,13.3,10.3,14.1h-5.8,0Z"/>
    </g>
    <g>
      <path d="M5101.7,3144.6v-30.4l-6.1,6.4-3.3-3.5,10.1-10.4h5v37.8h-5.7Z"/>
      <path d="M5133.1,3144.6l-7.7-10.7-7.7,10.7h-5.8l10.3-14.1-9.6-13.3h5.8l7.1,9.9,7-9.9h5.8l-9.7,13.3,10.3,14.1h-5.8,0Z"/>
    </g>
    <g>
      <path d="M3646.1,3240.8l-15.9-25.9-1.9,8.7-4.7-1.2,3.2-14.2,4.2-2.6,19.8,32.2-4.8,3h0Z"/>
      <path d="M3660.7,3239c.7,0,1.6-.4,2.2-.8,1.6-1,2.3-2.2,2-4.3l-.5-3.9-24.1-17.6,4.6-2.9,18.6,13.8-4-22.8,4.7-2.9,5.6,34.8c.8,4.6-1,7.5-4.3,9.6-.7.4-2.1,1.1-2.9,1.3l-1.7-4.3h-.2Z"/>
    </g>
    <polygon class="st7" points="2971.1 2703.2 2869.6 2557.7 2964.6 2419.8 2881.3 2419.8 2823.2 2507.2 2764.5 2419.8 2681.2 2419.8 2775.7 2557.7 2675.3 2703.2 2758 2703.2 2823.2 2607.6 2887.7 2703.2 2971.1 2703.2"/>
    <polygon class="st7" points="730.7 2988.9 832.2 3134.5 737.1 3272.4 820.5 3272.4 878.6 3184.9 937.2 3272.4 1020.6 3272.4 926.1 3134.5 1026.5 2988.9 943.7 2988.9 878.6 3084.6 814 2988.9 730.7 2988.9"/>
    <g class="st6">
      <g class="st12">
        <g>
          <path class="st8" d="M4839.1,3086.2c-4.5-3.3-9.8-5-15.9-5s-11.4,1.8-16.4,5.3-8.6,8.3-10.3,14.6h52.2c-1.8-6.6-5-11.6-9.6-14.9"/>
          <path class="st8" d="M4332.3,3061.7h-30v33.7l30,.2c6.3,0,11.1-1.6,14.9-4.9,3.7-3.2,5.6-7.4,5.6-12.5s-1.9-8.8-5.6-11.8-8.6-4.6-14.9-4.6"/>
          <path class="st8" d="M4805.5,3143.8c4.8,4.3,10.6,6.6,17.4,6.6,12.6,0,21.7-4.8,27-14.6l35.8,7.3c-5.3,13.1-13.4,23-24.2,29.5-10.8,6.6-23.7,9.8-38.6,9.8s-34.6-6.3-47.4-18.9c-12.9-12.6-19.4-28.8-19.4-48.5s6.6-35.6,19.4-48.2c12.9-12.6,28.8-18.9,47.7-18.9s33.8,6.1,46.2,18.4c12.4,12.4,18.4,28.5,18.9,48.7l.3,10.9h-92.9c1.8,7.6,5,13.6,9.8,17.9M4737,3180.4h-36.9l-71.5-80.1v80.1h-44.6v-155.6h36.7l71.5,82.9v-82.9h44.8v155.6ZM4562.4,3180.4h-44.8v-59.5h-55.8v59.5h-45.6v-155.6h45.6v60.5h55.8v-60.5h44.8v155.6ZM4351.1,3180.4l-42.7-49.7h-6v49.7h-44.6v-155.6h82.9c16.7,0,30.2,4.9,40.4,14.4,10.2,9.5,15.3,22.1,15.3,37.6s-3.3,23-10,31.8-15.8,15.1-27.4,18.6l46.4,53.2h-54.3,0ZM4169.9,3270.2h850.4v-850.4h-850.4v850.4Z"/>
        </g>
      </g>
    </g>
  </g>
</svg>