<?xml version="1.0" encoding="UTF-8"?>
<svg id="Calque_1" xmlns="http://www.w3.org/2000/svg" version="1.1" xmlns:xlink="http://www.w3.org/1999/xlink" viewBox="0 0 4876 1536.7">
  <!-- Generator: Adobe Illustrator 30.2.1, SVG Export Plug-In . SVG Version: 2.1.1 Build 1)  -->
  <defs>
    <style>
      .st0 {
        stroke-dasharray: 12.2 12.2;
      }

      .st0, .st1, .st2, .st3, .st4, .st5 {
        fill: none;
      }

      .st0, .st2, .st3, .st4, .st5 {
        stroke: #1d1d1b;
        stroke-miterlimit: 10;
        stroke-width: 2.8px;
      }

      .st6, .st7 {
        opacity: .2;
      }

      .st8 {
        fill: #009a96;
      }

      .st9 {
        fill: #3a8f8c;
      }

      .st3 {
        stroke-dasharray: 12;
      }

      .st10 {
        display: none;
      }

      .st11 {
        fill: #82bfbb;
      }

      .st4 {
        stroke-dasharray: 12.5 12.5;
      }

      .st5 {
        stroke-dasharray: 12 12;
      }

      .st12 {
        clip-path: url(#clippath);
      }

      .st7 {
        fill: #000300;
        isolation: isolate;
      }
    </style>
    <clipPath id="clippath">
      <rect class="st1" x="4169.9" y="374.9" width="850.4" height="850.4"/>
    </clipPath>
  </defs>
  <g id="construction" class="st10">
    <g>
      <line class="st2" x1="558.7" y1="941.8" x2="564.7" y2="941.8"/>
      <line class="st5" x1="576.6" y1="941.8" x2="5504" y2="941.8"/>
      <line class="st2" x1="5510" y1="941.8" x2="5516" y2="941.8"/>
    </g>
    <g>
      <line class="st2" x1="558.7" y1="658.3" x2="564.7" y2="658.3"/>
      <line class="st5" x1="576.6" y1="658.3" x2="5504" y2="658.3"/>
      <line class="st2" x1="5510" y1="658.3" x2="5516" y2="658.3"/>
    </g>
    <g>
      <line class="st2" x1="558.7" y1="374.9" x2="564.7" y2="374.9"/>
      <line class="st5" x1="576.6" y1="374.9" x2="5504" y2="374.9"/>
      <line class="st2" x1="5510" y1="374.9" x2="5516" y2="374.9"/>
    </g>
    <g>
      <line class="st2" x1="2965.2" y1="1541.5" x2="2965.2" y2="1535.5"/>
      <line class="st5" x1="2965.2" y1="1523.5" x2="2965.2" y2="91.1"/>
      <line class="st2" x1="2965.2" y1="85.1" x2="2965.2" y2="79.1"/>
    </g>
    <g>
      <line class="st2" x1="2217.5" y1="1388" x2="2217.5" y2="1382"/>
      <line class="st4" x1="2217.5" y1="1369.5" x2="2217.5" y2="1151.1"/>
      <line class="st2" x1="2217.5" y1="1144.9" x2="2217.5" y2="1138.9"/>
    </g>
    <g>
      <line class="st2" x1="2312.6" y1="1388" x2="2312.6" y2="1382"/>
      <line class="st4" x1="2312.6" y1="1369.5" x2="2312.6" y2="1151.1"/>
      <line class="st2" x1="2312.6" y1="1144.9" x2="2312.6" y2="1138.9"/>
    </g>
    <g>
      <line class="st2" x1="4169.9" y1="1541.5" x2="4169.9" y2="1535.5"/>
      <line class="st5" x1="4169.9" y1="1523.5" x2="4169.9" y2="91.1"/>
      <line class="st2" x1="4169.9" y1="85.1" x2="4169.9" y2="79.1"/>
    </g>
    <g>
      <line class="st2" x1="1128.1" y1="1541.5" x2="1128.1" y2="1535.5"/>
      <line class="st5" x1="1128.1" y1="1523.5" x2="1128.1" y2="91.1"/>
      <line class="st2" x1="1128.1" y1="85.1" x2="1128.1" y2="79.1"/>
    </g>
    <g>
      <line class="st2" x1="5020.3" y1="1541.5" x2="5020.3" y2="1535.5"/>
      <line class="st5" x1="5020.3" y1="1523.5" x2="5020.3" y2="91.1"/>
      <line class="st2" x1="5020.3" y1="85.1" x2="5020.3" y2="79.1"/>
    </g>
    <g>
      <line class="st2" x1="3177.8" y1="1541.5" x2="3177.8" y2="1535.5"/>
      <line class="st5" x1="3177.8" y1="1523.5" x2="3177.8" y2="91.1"/>
      <line class="st2" x1="3177.8" y1="85.1" x2="3177.8" y2="79.1"/>
    </g>
    <g>
      <line class="st2" x1="3461.3" y1="1541.5" x2="3461.3" y2="1535.5"/>
      <line class="st5" x1="3461.3" y1="1523.5" x2="3461.3" y2="91.1"/>
      <line class="st2" x1="3461.3" y1="85.1" x2="3461.3" y2="79.1"/>
    </g>
    <g>
      <line class="st2" x1="3744.7" y1="1541.5" x2="3744.7" y2="1535.5"/>
      <line class="st5" x1="3744.7" y1="1523.5" x2="3744.7" y2="91.1"/>
      <line class="st2" x1="3744.7" y1="85.1" x2="3744.7" y2="79.1"/>
    </g>
    <g>
      <line class="st2" x1="4453.4" y1="1541.5" x2="4453.4" y2="1535.5"/>
      <line class="st5" x1="4453.4" y1="1523.5" x2="4453.4" y2="91.1"/>
      <line class="st2" x1="4453.4" y1="85.1" x2="4453.4" y2="79.1"/>
    </g>
    <g>
      <line class="st2" x1="4736.9" y1="1541.5" x2="4736.9" y2="1535.5"/>
      <line class="st5" x1="4736.9" y1="1523.5" x2="4736.9" y2="91.1"/>
      <line class="st2" x1="4736.9" y1="85.1" x2="4736.9" y2="79.1"/>
    </g>
    <g>
      <line class="st2" x1="4028.2" y1="1541.5" x2="4028.2" y2="1535.5"/>
      <line class="st5" x1="4028.2" y1="1523.5" x2="4028.2" y2="91.1"/>
      <line class="st2" x1="4028.2" y1="85.1" x2="4028.2" y2="79.1"/>
    </g>
    <g>
      <line class="st2" x1="3177.8" y1="1541.5" x2="3177.8" y2="1535.5"/>
      <line class="st5" x1="3177.8" y1="1523.5" x2="3177.8" y2="91.1"/>
      <line class="st2" x1="3177.8" y1="85.1" x2="3177.8" y2="79.1"/>
    </g>
    <g>
      <line class="st2" x1="558.7" y1="1225.3" x2="564.7" y2="1225.3"/>
      <line class="st5" x1="576.6" y1="1225.3" x2="5504" y2="1225.3"/>
      <line class="st2" x1="5510" y1="1225.3" x2="5516" y2="1225.3"/>
    </g>
    <g>
      <path d="M2389.8,1364.8v-30.4l-6.1,6.4-3.3-3.5,10.1-10.4h5v37.8h-5.7Z"/>
      <path d="M2403.2,1370.9c.6.3,1.6.5,2.3.5,1.9,0,3.1-.6,4-2.7l1.6-3.6-11.3-27.7h5.4l8.6,21.5,8.6-21.5h5.5l-13.5,32.6c-1.8,4.3-4.8,5.8-8.7,5.9-.9,0-2.4-.2-3.2-.4l.8-4.6h-.1Z"/>
    </g>
    <g>
      <path d="M2251.2,1364.8v-30.4l-6.1,6.4-3.3-3.5,10.1-10.4h5v37.8h-5.7Z"/>
      <path d="M2263.9,1364.8v-3.9l14.3-19h-14.3v-4.5h21v3.8l-14.4,19.2h14.6v4.4h-21.3,0Z"/>
    </g>
    <g>
      <path d="M3590.4,1006.8v-30.4l-6.1,6.4-3.3-3.5,10.1-10.4h5v37.8h-5.7Z"/>
      <path d="M3603.1,1006.8v-3.9l14.3-19h-14.3v-4.5h21v3.8l-14.4,19.2h14.6v4.4h-21.3,0Z"/>
    </g>
    <g>
      <line class="st2" x1="2366.5" y1="1388" x2="2366.5" y2="1382"/>
      <line class="st0" x1="2366.5" y1="1369.8" x2="2366.5" y2="913.3"/>
      <line class="st2" x1="2366.5" y1="907.2" x2="2366.5" y2="901.2"/>
    </g>
    <g>
      <line class="st2" x1="2440.7" y1="1388" x2="2440.7" y2="1382"/>
      <line class="st0" x1="2440.7" y1="1369.8" x2="2440.7" y2="913.3"/>
      <line class="st2" x1="2440.7" y1="907.2" x2="2440.7" y2="901.2"/>
    </g>
    <g>
      <path class="st3" d="M3595.7,942.2c-25.5,4-43.6,28.8-39.7,54.3,4,25.5,28.8,43.6,54.3,39.7,25.5-4,43.6-28.8,39.7-54.3-4-25.5-28.8-43.6-54.3-39.7h0Z"/>
      <path class="st3" d="M3177.8,726.3c45.9-37.7,96.7-68.1,151.5-90.8.8-13.1,4.2-26.2,10.5-38.7,24.9-49.8,85.6-70,135.4-45.1,17.7,8.8,32,22.4,41.8,39,27.5-2,55.2-2.2,83-.4,51.2,3.3,101.2,13,149.6,28.9,13.7-10.3,28.1-20,43-28.8,51.5-30.4,107.7-50.4,167.1-59.3,22.9-3.4,45.7-5.1,68.6-5.2"/>
      <path class="st3" d="M3630.6,1225.1c-.2-.3-.3-.5-.5-.8-21.4-36.2-37.6-74.7-48.4-115-18-3.2-35.6-10.4-51.3-22-54.1-40-65.6-116.6-25.6-170.8,19.2-26,46.9-42.2,76.5-47.5,15-56,40.1-108.2,75-155.3,9.1-12.3,18.7-24.1,28.9-35.3-40.6-9.9-82-14.8-123.6-14.8s-22.2.4-33.2,1.1c-1.8,7.7-4.5,15.2-8.1,22.5-17.7,35.3-53.4,55.7-90.4,55.7s-30.5-3.4-45-10.7c-12.8-6.4-23.7-15.2-32.3-25.6-66.5,28.4-125.7,69.5-174.7,121"/>
      <path class="st3" d="M4028.2,944.3c-49.8-93.7-128.1-173.3-230-224.3-11.2-5.6-22.6-10.8-34-15.6-17.4,16.2-33.4,34.2-47.9,53.7-27.4,37.1-47.7,78-60.4,121,6.8,3.3,13.4,7.2,19.7,11.9,54.1,40,65.6,116.6,25.6,170.8-12.2,16.4-27.7,29-45,37.3,13.5,45.9,35.3,88.5,64.2,126.1"/>
      <path class="st3" d="M4028.2,600.7c-19.1,0-38.3,1.5-57.5,4.4-49.6,7.4-96.4,24-138.4,48.6,72.6,36.5,136,86.1,188.3,147.4,2.6,3,5.1,6,7.6,9.1"/>
    </g>
    <g>
      <path d="M3022.3,270.4c10.5,0,14.8,10.1,14.8,19.5s-4.3,19.6-14.8,19.6-14.8-10.2-14.8-19.6,4.3-19.5,14.8-19.5ZM3022.3,275.5c-6.7,0-9,7.1-9,14.5s2.3,14.5,9,14.5,9-7.1,9-14.5-2.3-14.5-9-14.5Z"/>
      <path d="M3044.8,302.3c1.9,0,3.6,1.6,3.6,3.5s-1.6,3.6-3.6,3.6-3.5-1.6-3.5-3.6,1.6-3.5,3.5-3.5Z"/>
      <path d="M3054.6,308.8l14.7-32.8h-20v-5h26.5v3.9l-15.1,33.9h-6.2.1Z"/>
      <path d="M3084.2,299.7c2.5,3.1,5.9,4.8,10.3,4.8s8.2-3.2,8.2-7.4-3.2-7.4-8.1-7.4-6,1-8.5,3.4l-4.1-1.3v-20.7h23.9v5h-18.3v12.1c1.8-1.8,5-3.3,8.7-3.3,6.3,0,12.1,4.4,12.1,12.1s-5.9,12.6-13.9,12.6-10.8-2.3-13.7-6l3.3-3.9h.1Z"/>
      <path d="M3131.9,308.8l-7.7-10.7-7.7,10.7h-5.8l10.3-14.1-9.6-13.3h5.8l7.1,9.9,7-9.9h5.8l-9.7,13.3,10.3,14.1h-5.8Z"/>
    </g>
    <g>
      <path d="M4062.5,270.4c10.5,0,14.8,10.1,14.8,19.5s-4.3,19.6-14.8,19.6-14.8-10.2-14.8-19.6,4.3-19.5,14.8-19.5ZM4062.5,275.5c-6.7,0-9,7.1-9,14.5s2.3,14.5,9,14.5,9-7.1,9-14.5-2.3-14.5-9-14.5Z"/>
      <path d="M4085,302.3c1.9,0,3.6,1.6,3.6,3.5s-1.6,3.6-3.6,3.6-3.5-1.6-3.5-3.6,1.6-3.5,3.5-3.5Z"/>
      <path d="M4098.6,299.7c2.5,3.1,5.9,4.8,10.3,4.8s8.2-3.2,8.2-7.4-3.2-7.4-8.1-7.4-6,1-8.5,3.4l-4.1-1.3v-20.7h23.9v5h-18.3v12.1c1.8-1.8,5-3.3,8.7-3.3,6.3,0,12.1,4.4,12.1,12.1s-5.9,12.6-13.9,12.6-10.8-2.3-13.7-6l3.3-3.9h0Z"/>
      <path d="M4146.4,308.8l-7.7-10.7-7.7,10.7h-5.8l10.3-14.1-9.6-13.3h5.8l7.1,9.9,7-9.9h5.8l-9.7,13.3,10.3,14.1h-5.8,0Z"/>
    </g>
    <g>
      <path d="M3872.9,308.8v-30.4l-6.1,6.4-3.3-3.5,10.1-10.4h5v37.8h-5.7Z"/>
      <path d="M3904.3,308.8l-7.7-10.7-7.7,10.7h-5.8l10.3-14.1-9.6-13.3h5.8l7.1,9.9,7-9.9h5.8l-9.7,13.3,10.3,14.1h-5.8Z"/>
    </g>
    <g>
      <path d="M3589.4,308.8v-30.4l-6.1,6.4-3.3-3.5,10.1-10.4h5v37.8h-5.7Z"/>
      <path d="M3620.9,308.8l-7.7-10.7-7.7,10.7h-5.8l10.3-14.1-9.6-13.3h5.8l7.1,9.9,7-9.9h5.8l-9.7,13.3,10.3,14.1h-5.8Z"/>
    </g>
    <g>
      <path d="M3305.9,308.8v-30.4l-6.1,6.4-3.3-3.5,10.1-10.4h5v37.8h-5.7Z"/>
      <path d="M3337.4,308.8l-7.7-10.7-7.7,10.7h-5.8l10.3-14.1-9.6-13.3h5.8l7.1,9.9,7-9.9h5.8l-9.7,13.3,10.3,14.1h-5.8Z"/>
    </g>
    <g>
      <path d="M5101.7,530.6v-30.4l-6.1,6.4-3.3-3.5,10.1-10.4h5v37.8h-5.7Z"/>
      <path d="M5133.1,530.6l-7.7-10.7-7.7,10.7h-5.8l10.3-14.1-9.6-13.3h5.8l7.1,9.9,7-9.9h5.8l-9.7,13.3,10.3,14.1h-5.8,0Z"/>
    </g>
    <g>
      <path d="M5101.7,810.3v-30.4l-6.1,6.4-3.3-3.5,10.1-10.4h5v37.8h-5.7Z"/>
      <path d="M5133.1,810.3l-7.7-10.7-7.7,10.7h-5.8l10.3-14.1-9.6-13.3h5.8l7.1,9.9,7-9.9h5.8l-9.7,13.3,10.3,14.1h-5.8,0Z"/>
    </g>
    <g>
      <path d="M5101.7,1099.7v-30.4l-6.1,6.4-3.3-3.5,10.1-10.4h5v37.8h-5.7Z"/>
      <path d="M5133.1,1099.7l-7.7-10.7-7.7,10.7h-5.8l10.3-14.1-9.6-13.3h5.8l7.1,9.9,7-9.9h5.8l-9.7,13.3,10.3,14.1h-5.8,0Z"/>
    </g>
    <g>
      <path d="M3646.1,1195.9l-15.9-25.9-1.9,8.7-4.7-1.2,3.2-14.2,4.2-2.6,19.8,32.2-4.8,3h0Z"/>
      <path d="M3660.7,1194.1c.7,0,1.6-.4,2.2-.8,1.6-1,2.3-2.2,2-4.3l-.5-3.9-24.1-17.6,4.6-2.9,18.6,13.8-4-22.8,4.7-2.9,5.6,34.8c.8,4.6-1,7.5-4.3,9.6-.7.4-2.1,1.1-2.9,1.3l-1.7-4.3h-.2Z"/>
    </g>
    <polygon class="st7" points="2971.1 658.3 2869.6 512.8 2964.6 374.9 2881.3 374.9 2823.2 462.3 2764.5 374.9 2681.2 374.9 2775.7 512.8 2675.3 658.3 2758 658.3 2823.2 562.7 2887.7 658.3 2971.1 658.3"/>
    <polygon class="st7" points="730.7 944 832.2 1089.6 737.1 1227.5 820.5 1227.5 878.6 1140 937.2 1227.5 1020.6 1227.5 926.1 1089.6 1026.5 944 943.7 944 878.6 1039.7 814 944 730.7 944"/>
    <g class="st6">
      <g class="st12">
        <g>
          <path class="st8" d="M4839.1,1041.3c-4.5-3.3-9.8-5-15.9-5s-11.4,1.8-16.4,5.3-8.6,8.3-10.3,14.6h52.2c-1.8-6.6-5-11.6-9.6-14.9"/>
          <path class="st8" d="M4332.3,1016.8h-30v33.7l30,.2c6.3,0,11.1-1.6,14.9-4.9,3.7-3.2,5.6-7.4,5.6-12.5s-1.9-8.8-5.6-11.8-8.6-4.6-14.9-4.6"/>
          <path class="st8" d="M4805.5,1098.9c4.8,4.3,10.6,6.6,17.4,6.6,12.6,0,21.7-4.8,27-14.6l35.8,7.3c-5.3,13.1-13.4,23-24.2,29.5-10.8,6.6-23.7,9.8-38.6,9.8s-34.6-6.3-47.4-18.9c-12.9-12.6-19.4-28.8-19.4-48.5s6.6-35.6,19.4-48.2c12.9-12.6,28.8-18.9,47.7-18.9s33.8,6.1,46.2,18.4c12.4,12.4,18.4,28.5,18.9,48.7l.3,10.9h-92.9c1.8,7.6,5,13.6,9.8,17.9M4737,1135.5h-36.9l-71.5-80.1v80.1h-44.6v-155.6h36.7l71.5,82.9v-82.9h44.8v155.6ZM4562.4,1135.5h-44.8v-59.5h-55.8v59.5h-45.6v-155.6h45.6v60.5h55.8v-60.5h44.8v155.6ZM4351.1,1135.5l-42.7-49.7h-6v49.7h-44.6v-155.6h82.9c16.7,0,30.2,4.9,40.4,14.4,10.2,9.5,15.3,22.1,15.3,37.6s-3.3,23-10,31.8-15.8,15.1-27.4,18.6l46.4,53.2h-54.3,0ZM4169.9,1225.3h850.4V374.9h-850.4v850.4Z"/>
        </g>
      </g>
    </g>
  </g>
  <path class="st11" d="M2836.8,1080.1c80.2,0,110.8,58.3,113.7,102.2h-227.3c5.7-45.8,38.2-102.2,113.7-102.2M2598,1225.2c0,148,106,242.6,246.4,242.6s143.3-21,190.1-64l-53.5-78.3c-29.6,28.7-80.2,45.8-123.2,45.8-78.3,0-125.1-48.7-132.8-107h342.9v-26.7c0-150.9-93.6-254-231.1-254s-238.8,107.9-238.8,241.6M2526.2,1456.3v-325.7c0-89.8-48.7-147.1-149.9-147.1s-131.8,36.3-161.4,71.6v-60.2h-121.3v461.3h121.3v-310.4c20.1-27.7,57.3-54.4,105.1-54.4s85,22,85,86v278.9h121.3-.1ZM1851.1,1389.5c0,42,35.3,77.4,77.4,77.4s77.4-35.3,77.4-77.4-35.3-77.4-77.4-77.4-77.4,35.3-77.4,77.4M1561.8,1359.9c-75.4,0-117.5-62.1-117.5-134.7s42-133.7,117.5-133.7,118.4,62.1,118.4,133.7-43,134.7-118.4,134.7M1561.8,1467.8c152.8,0,244.5-110.8,244.5-242.6s-91.7-241.6-244.5-241.6-243.5,110.8-243.5,241.6,91.7,242.6,243.5,242.6M870.5,1396.2c48.7,44.9,126.1,71.6,206.3,71.6,128,0,199.6-63,199.6-148s-106-135.6-185.3-150.9c-51.6-10.5-87.9-21-87.9-49.7s28.7-43,72.6-43,108.9,23.9,136.6,53.5l47.8-83.1c-44.9-36.3-107-63-185.3-63-121.3,0-189.1,67.8-189.1,145.2,0,109.8,102.2,128.9,181.5,144.2,52.5,10.5,92.6,22,92.6,54.4s-24.8,46.8-77.4,46.8-126.1-31.5-159.5-63l-52.5,85h0ZM610.2,1080.1c80.2,0,110.8,58.3,113.7,102.2h-227.3c5.7-45.8,38.2-102.2,113.7-102.2M371.4,1225.2c0,148,106,242.6,246.4,242.6s143.3-21,190.1-64l-53.5-78.3c-29.6,28.7-80.2,45.8-123.2,45.8-78.3,0-125.1-48.7-132.8-107h342.9v-26.7c0-150.9-93.6-254-231.1-254s-238.8,107.9-238.8,241.6M804.1,787.8h-111.7l-128,137.5h85l154.7-137.5ZM199.5,1456.3v-304.7c20.1-29.6,73.5-51.6,113.7-51.6s24.8,1,33.4,2.9v-118.4c-57.3,0-114.6,32.5-147.1,73.5v-63h-121.3v461.3h121.3Z"/>
  <path class="st9" d="M4093.9,992.4c-41.5,6.5-71,46.8-64.5,88.3s46.8,71,88.3,64.5c41.5-6.5,71-46.8,64.6-88.3-6.5-41.5-46.8-71-88.3-64.5h0ZM3413.9,68.9v572.2c74.7-61.3,157.4-110.8,246.6-147.7,1.4-21.3,6.9-42.7,17-63,40.5-81,139.4-113.8,220.3-73.3,28.8,14.4,52.1,36.4,68,63.5,44.8-3.3,89.9-3.5,135.1-.6,83.3,5.3,164.8,21.1,243.5,47.1,22.3-16.8,45.7-32.5,70-46.8,83.8-49.5,175.2-82,271.9-96.5,37.2-5.6,74.4-8.4,111.6-8.4V68.9h-1384ZM4071.2,1264.4c-29.3-5.1-57.9-17-83.5-35.8-88.1-65.1-106.8-189.8-41.6-277.9,31.3-42.4,76.4-68.7,124.6-77.3,24.3-91.1,65.3-176.1,122-252.7,14.8-20,30.5-39.2,47-57.5-66-16.1-133.5-24.1-201.1-24.1s-36.1.6-54.1,1.7c-2.9,12.5-7.3,24.8-13.2,36.6-28.7,57.4-86.9,90.7-147.1,90.7s-49.7-5.6-73.2-17.4c-20.9-10.4-38.5-24.8-52.6-41.6-108.2,46.2-204.5,113.1-284.3,196.9v646.8h736.8c-.3-.4-.5-.8-.8-1.3-34.8-58.8-61.2-121.5-78.8-187.1h-.1ZM4423.5,630.7c-18.3-9.1-36.7-17.6-55.4-25.4-28.3,26.4-54.4,55.6-78,87.5-44.7,60.4-77.6,127-98.3,196.9,11.1,5.3,21.8,11.8,32.1,19.3,88.1,65.1,106.8,189.8,41.7,277.9-19.8,26.8-45.1,47.1-73.2,60.7,22,74.7,57.4,144.1,104.5,205.2h500.9v-457c-81.1-152.5-208.5-282.1-374.3-365.1h0ZM4478.9,522.8c118.2,59.3,221.3,140,306.5,239.9,4.2,4.9,8.3,9.8,12.4,14.8v-340.8c-31,0-62.3,2.4-93.6,7.1-80.7,12.1-156.8,39.1-225.3,79.1h0ZM4093.9,992.4c-41.5,6.5-71,46.8-64.5,88.3s46.8,71,88.3,64.5c41.5-6.5,71-46.8,64.6-88.3-6.5-41.5-46.8-71-88.3-64.5h0Z"/>
</svg>