<?xml version="1.0" encoding="UTF-8"?>
<svg id="Calque_3" data-name="Calque 3" xmlns="http://www.w3.org/2000/svg" viewBox="0 0 2900.11 859.64">
  <defs>
    <style>
      .cls-1 {
        fill: #009996;
      }

      .cls-2 {
        fill: #2e6b6b;
      }
    </style>
  </defs>
  <g id="Calque_1" data-name="Calque 1">
    <g>
      <path class="cls-1" d="M1695.1,621.37c49.3,0,68.08,35.8,69.84,62.8h-139.68c3.52-28.17,23.48-62.8,69.84-62.8M1548.38,710.57c0,90.97,65.14,149.07,151.41,149.07,44.02,0,88.03-12.91,116.79-39.32l-32.86-48.12c-18.19,17.61-49.3,28.17-75.71,28.17-48.12,0-76.88-29.93-81.58-65.73h210.69v-16.43c0-92.73-57.51-156.11-142.02-156.11s-146.72,66.32-146.72,148.48M1504.25,852.6v-200.12c0-55.17-29.93-90.38-92.14-90.38-46.36,0-80.99,22.3-99.18,44.02v-36.97h-74.53v283.46h74.53v-190.73c12.32-17.02,35.21-33.45,64.56-33.45,31.69,0,52.23,13.5,52.23,52.82v171.37h74.53ZM1089.39,811.52c0,25.82,21.71,47.54,47.54,47.54s47.54-21.71,47.54-47.54-21.71-47.54-47.54-47.54-47.54,21.71-47.54,47.54M911.63,793.32c-46.36,0-72.19-38.15-72.19-82.75s25.82-82.16,72.19-82.16,72.77,38.15,72.77,82.16-26.41,82.75-72.77,82.75M911.63,859.64c93.9,0,150.24-68.08,150.24-149.07s-56.34-148.48-150.24-148.48-149.65,68.08-149.65,148.48,56.34,149.07,149.65,149.07M486.86,815.62c29.93,27.58,77.47,44.02,126.76,44.02,78.64,0,122.66-38.73,122.66-90.97,0-70.43-65.14-83.34-113.85-92.73-31.69-6.46-53.99-12.91-53.99-30.52,0-16.43,17.61-26.41,44.6-26.41,34.63,0,66.9,14.67,83.92,32.87l29.34-51.06c-27.58-22.3-65.73-38.73-113.85-38.73-74.53,0-116.2,41.67-116.2,89.2,0,67.49,62.8,79.23,111.51,88.62,32.28,6.46,56.93,13.5,56.93,33.45,0,17.61-15.26,28.76-47.54,28.76-35.21,0-77.47-19.37-98.01-38.73l-32.28,52.23ZM326.88,621.37c49.3,0,68.08,35.8,69.84,62.8h-139.68c3.52-28.17,23.47-62.8,69.84-62.8M180.16,710.57c0,90.97,65.14,149.07,151.41,149.07,44.02,0,88.03-12.91,116.79-39.32l-32.86-48.12c-18.19,17.61-49.3,28.17-75.71,28.17-48.12,0-76.88-29.93-81.58-65.73h210.69v-16.43c0-92.73-57.51-156.11-142.02-156.11s-146.72,66.32-146.72,148.48M446.02,441.79h-68.66l-78.64,84.51h52.23l95.07-84.51ZM74.53,852.6v-187.21c12.32-18.19,45.19-31.69,69.84-31.69,8.22,0,15.26.59,20.54,1.76v-72.77c-35.21,0-70.43,19.95-90.38,45.19v-38.73H0v283.46h74.53Z"/>
      <g>
        <path class="cls-2" d="M2521.88,607.14c3.97,25.52-14.15,50.31-39.67,54.28-25.51,3.97-50.3-14.15-54.27-39.66-3.97-25.52,14.15-50.31,39.66-54.28,25.52-3.97,50.31,14.15,54.28,39.66Z"/>
        <path class="cls-2" d="M2049.73,0v351.6c45.93-37.66,96.71-68.07,151.51-90.75.83-13.1,4.23-26.24,10.47-38.69,24.9-49.75,85.63-69.95,135.38-45.05,17.68,8.85,32.03,22.37,41.79,39.04,27.53-2.03,55.24-2.17,83.03-.38,51.19,3.28,101.24,12.97,149.6,28.94,13.72-10.35,28.06-19.96,42.99-28.78,51.47-30.44,107.68-50.39,167.06-59.29,22.86-3.42,45.74-5.14,68.56-5.17V0h-850.39Z"/>
        <path class="cls-2" d="M2453.62,734.65c-18.03-3.16-35.61-10.42-51.3-22.02-54.13-40.02-65.61-116.63-25.59-170.76,19.24-26.03,46.94-42.19,76.54-47.52,14.96-56,40.14-108.19,74.96-155.28,9.1-12.3,18.73-24.09,28.86-35.32-40.58-9.87-82.01-14.82-123.59-14.82-11.07,0-22.16.36-33.24,1.07-1.79,7.7-4.5,15.24-8.13,22.49-17.66,35.29-53.37,55.72-90.38,55.72-15.17,0-30.54-3.43-45-10.67-12.82-6.41-23.68-15.22-32.31-25.59-66.51,28.36-125.68,69.48-174.72,120.98v397.46h452.78c-.16-.26-.32-.52-.47-.78-21.38-36.16-37.58-74.66-48.41-114.96Z"/>
        <path class="cls-2" d="M2670.11,345.23c-11.22-5.62-22.57-10.81-34.04-15.59-17.41,16.23-33.45,34.19-47.9,53.74-27.45,37.12-47.71,78.01-60.39,121.01,6.81,3.28,13.41,7.23,19.71,11.88,54.14,40.02,65.62,116.63,25.6,170.76-12.17,16.45-27.71,28.96-44.97,37.28,13.52,45.93,35.26,88.53,64.19,126.08h307.8v-280.83c-49.83-93.68-128.11-173.32-230-224.33Z"/>
        <path class="cls-2" d="M2704.19,278.94c72.63,36.47,135.99,86.06,188.34,147.4,2.57,3.01,5.1,6.04,7.59,9.09v-209.43c-19.08.04-38.3,1.48-57.51,4.35-49.61,7.44-96.38,24.01-138.42,48.59Z"/>
      </g>
    </g>
  </g>
</svg>