<?xml version="1.0" encoding="UTF-8"?>
<svg id="Calque_3" data-name="Calque 3" xmlns="http://www.w3.org/2000/svg" viewBox="0 0 850.39 850.39">
  <defs>
    <style>
      .cls-1 {
        fill: #2e6b6b;
      }
    </style>
  </defs>
  <g id="Calque_1" data-name="Calque 1">
    <path class="cls-1" d="M472.16,607.14c3.97,25.52-14.15,50.31-39.67,54.28-25.51,3.97-50.3-14.15-54.27-39.66-3.97-25.52,14.15-50.31,39.66-54.28,25.52-3.97,50.31,14.15,54.28,39.66ZM0,0v351.6c45.93-37.66,96.71-68.07,151.51-90.75.83-13.1,4.23-26.24,10.47-38.69,24.9-49.75,85.63-69.95,135.38-45.05,17.68,8.85,32.03,22.37,41.79,39.04,27.53-2.03,55.24-2.17,83.03-.38,51.19,3.28,101.24,12.97,149.6,28.94,13.72-10.35,28.06-19.96,42.99-28.78,51.47-30.44,107.68-50.39,167.06-59.29,22.86-3.42,45.74-5.14,68.56-5.17V0H0ZM403.9,734.65c-18.03-3.16-35.61-10.42-51.3-22.02-54.13-40.02-65.61-116.63-25.59-170.76,19.24-26.03,46.94-42.19,76.54-47.52,14.96-56,40.14-108.19,74.96-155.28,9.1-12.3,18.73-24.09,28.86-35.32-40.58-9.87-82.01-14.82-123.59-14.82-11.07,0-22.16.36-33.24,1.07-1.79,7.7-4.5,15.24-8.13,22.49-17.66,35.29-53.37,55.72-90.38,55.72-15.17,0-30.54-3.43-45-10.67-12.82-6.41-23.68-15.22-32.31-25.59C108.21,360.31,49.04,401.43,0,452.93v397.46h452.78c-.16-.26-.32-.52-.47-.78-21.38-36.16-37.58-74.66-48.41-114.96ZM620.39,345.23c-11.22-5.62-22.57-10.81-34.04-15.59-17.41,16.23-33.45,34.19-47.9,53.74-27.45,37.12-47.71,78.01-60.39,121.01,6.81,3.28,13.41,7.23,19.71,11.88,54.14,40.02,65.62,116.63,25.6,170.76-12.17,16.45-27.71,28.96-44.97,37.28,13.52,45.93,35.26,88.53,64.19,126.08h307.8v-280.83c-49.83-93.68-128.11-173.32-230-224.33ZM654.46,278.94c72.63,36.47,135.99,86.06,188.34,147.4,2.57,3.01,5.1,6.04,7.59,9.09v-209.43c-19.08.04-38.3,1.48-57.51,4.35-49.61,7.44-96.38,24.01-138.42,48.59Z"/>
  </g>
</svg>